# Blender 4.3.2
# www.blender.org
o Cube
v 0.375000 0.076696 0.677451
v 0.337500 0.114196 0.654804
v 0.337500 0.088518 0.719634
v 0.372145 0.091047 0.672256
v 0.364016 0.103212 0.666128
v 0.372145 0.083597 0.691064
v 0.367996 0.094348 0.684443
v 0.362430 0.103296 0.678502
v 0.359066 0.101950 0.687454
v 0.337500 0.112241 0.671235
v 0.337500 0.106675 0.689325
v 0.351851 0.111341 0.659999
v 0.351345 0.108296 0.674879
v 0.350991 0.104862 0.688607
v 0.351851 0.089995 0.713893
v 0.364016 0.088267 0.703861
v 0.337500 0.098345 0.706321
v 0.351345 0.097965 0.700963
v 0.362430 0.096802 0.694900
v 0.337500 -0.114196 0.897889
v 0.375000 -0.076696 0.840711
v 0.337500 -0.088518 0.908060
v 0.351851 -0.111341 0.884773
v 0.364016 -0.103212 0.869300
v 0.337500 -0.112241 0.910160
v 0.351345 -0.108296 0.899896
v 0.362430 -0.102353 0.889116
v 0.359066 -0.099598 0.898534
v 0.372145 -0.075219 0.860097
v 0.364016 -0.076947 0.879704
v 0.372145 -0.091047 0.853828
v 0.367996 -0.090574 0.875751
v 0.362430 -0.091142 0.893557
v 0.337500 -0.098345 0.915664
v 0.337500 -0.106675 0.916401
v 0.351851 -0.081617 0.896546
v 0.351345 -0.094192 0.905482
v 0.350991 -0.103919 0.909443
v -0.337500 0.088518 0.719634
v -0.337500 0.114196 0.654804
v -0.375000 0.076696 0.677451
v -0.337500 0.098345 0.706321
v -0.337500 0.106675 0.689325
v -0.351851 0.089995 0.713893
v -0.351345 0.097965 0.700963
v -0.350991 0.104862 0.688607
v -0.359066 0.101950 0.687454
v -0.351851 0.111341 0.659999
v -0.364017 0.103212 0.666128
v -0.337500 0.112241 0.671235
v -0.351345 0.108296 0.674880
v -0.362430 0.103296 0.678502
v -0.372146 0.083597 0.691064
v -0.364017 0.088267 0.703860
v -0.372146 0.091047 0.672256
v -0.367996 0.094348 0.684443
v -0.362430 0.096802 0.694900
v -0.337500 -0.088518 0.908060
v -0.375000 -0.076696 0.840711
v -0.337500 -0.114196 0.897889
v -0.351851 -0.081617 0.896546
v -0.364017 -0.076947 0.879704
v -0.337500 -0.098345 0.915664
v -0.351345 -0.094192 0.905482
v -0.362430 -0.091142 0.893557
v -0.359066 -0.099598 0.898534
v -0.372146 -0.091047 0.853828
v -0.364017 -0.103212 0.869300
v -0.372146 -0.075219 0.860097
v -0.367996 -0.090575 0.875751
v -0.362430 -0.102353 0.889116
v -0.337500 -0.112241 0.910160
v -0.337500 -0.106675 0.916401
v -0.351851 -0.111341 0.884773
v -0.351345 -0.108296 0.899896
v -0.350991 -0.103919 0.909443
v 0.375000 0.076696 -0.759049
v 0.337500 0.088518 -0.826398
v 0.337500 0.114196 -0.816227
v 0.372146 0.075219 -0.778435
v 0.364017 0.076947 -0.798042
v 0.372146 0.091047 -0.772166
v 0.367996 0.090574 -0.794089
v 0.362430 0.091142 -0.811894
v 0.359066 0.099598 -0.816872
v 0.337500 0.098345 -0.834002
v 0.337500 0.106675 -0.834739
v 0.351851 0.081617 -0.814884
v 0.351345 0.094192 -0.823820
v 0.350991 0.103919 -0.827781
v 0.351851 0.111341 -0.803111
v 0.364017 0.103212 -0.787638
v 0.337500 0.112241 -0.828498
v 0.351345 0.108296 -0.818234
v 0.362430 0.102353 -0.807454
v 0.337500 -0.088518 -0.637972
v 0.375000 -0.076696 -0.595789
v 0.337500 -0.114196 -0.573142
v 0.351851 -0.089995 -0.632231
v 0.364017 -0.088267 -0.622198
v 0.337500 -0.098345 -0.624659
v 0.351345 -0.097965 -0.619301
v 0.362430 -0.096802 -0.613238
v 0.359066 -0.101950 -0.605792
v 0.372146 -0.091047 -0.590594
v 0.364017 -0.103212 -0.584465
v 0.372146 -0.083597 -0.609402
v 0.367996 -0.094348 -0.602781
v 0.362430 -0.103296 -0.596840
v 0.337500 -0.112241 -0.589573
v 0.337500 -0.106675 -0.607663
v 0.351851 -0.111341 -0.578337
v 0.351345 -0.108296 -0.593217
v 0.350991 -0.104862 -0.606945
v -0.337500 0.088518 -0.826398
v -0.375000 0.076696 -0.759049
v -0.337500 0.114196 -0.816227
v -0.351851 0.081617 -0.814884
v -0.364016 0.076947 -0.798042
v -0.337500 0.098345 -0.834002
v -0.351345 0.094192 -0.823820
v -0.362430 0.091142 -0.811894
v -0.359066 0.099598 -0.816872
v -0.372145 0.091047 -0.772166
v -0.364016 0.103212 -0.787638
v -0.372145 0.075219 -0.778435
v -0.367996 0.090575 -0.794089
v -0.362430 0.102353 -0.807454
v -0.337500 0.112241 -0.828498
v -0.337500 0.106675 -0.834739
v -0.351851 0.111341 -0.803111
v -0.351345 0.108296 -0.818234
v -0.350991 0.103919 -0.827781
v -0.337500 -0.114196 -0.573142
v -0.375000 -0.076696 -0.595789
v -0.337500 -0.088518 -0.637972
v -0.351851 -0.111341 -0.578337
v -0.364016 -0.103212 -0.584466
v -0.337500 -0.112241 -0.589573
v -0.351345 -0.108296 -0.593217
v -0.362430 -0.103296 -0.596840
v -0.359066 -0.101950 -0.605792
v -0.372145 -0.083597 -0.609402
v -0.364016 -0.088267 -0.622198
v -0.372145 -0.091047 -0.590594
v -0.367996 -0.094348 -0.602781
v -0.362430 -0.096802 -0.613238
v -0.337500 -0.098345 -0.624659
v -0.337500 -0.106675 -0.607663
v -0.351851 -0.089995 -0.632231
v -0.351345 -0.097965 -0.619301
v -0.350991 -0.104862 -0.606945
vn 0.9885 0.1406 0.0557
vn 0.0896 0.9946 0.0525
vn 0.0896 0.7608 0.6428
vn 0.9164 0.3900 0.0902
vn 0.6773 0.7335 0.0580
vn 0.9164 0.3460 0.2013
vn 0.8234 0.5276 0.2090
vn 0.5876 0.7876 0.1856
vn 0.4758 0.8178 0.3239
vn 0.0943 0.9730 0.2107
vn 0.0837 0.9265 0.3670
vn 0.3634 0.9278 0.0842
vn 0.2993 0.9307 0.2101
vn 0.2500 0.9002 0.3565
vn 0.3634 0.7339 0.5739
vn 0.6773 0.5743 0.4599
vn 0.0943 0.8534 0.5127
vn 0.2993 0.8222 0.4842
vn 0.5876 0.7011 0.4040
vn 0.1618 -0.9816 0.1014
vn 0.9970 -0.0283 0.0716
vn 0.1618 0.6459 0.7460
vn 0.4252 -0.9017 0.0777
vn 0.7679 -0.6372 0.0652
vn 0.2190 -0.8772 0.4273
vn 0.5562 -0.7847 0.2736
vn 0.8347 -0.4925 0.2463
vn 0.8173 -0.2122 0.5357
vn 0.9450 0.1718 0.2782
vn 0.7679 0.4197 0.4839
vn 0.9450 -0.3157 0.0851
vn 0.9645 -0.0972 0.2454
vn 0.8347 0.1903 0.5167
vn 0.2190 0.3467 0.9121
vn 0.2347 -0.3580 0.9038
vn 0.4252 0.6040 0.6741
vn 0.5562 0.3846 0.7367
vn 0.6716 -0.2728 0.6888
vn -0.0896 0.7608 0.6428
vn -0.0896 0.9946 0.0525
vn -0.9885 0.1406 0.0557
vn -0.0943 0.8534 0.5127
vn -0.0837 0.9265 0.3670
vn -0.3634 0.7339 0.5739
vn -0.2993 0.8222 0.4842
vn -0.2500 0.9002 0.3565
vn -0.4758 0.8178 0.3239
vn -0.3634 0.9278 0.0842
vn -0.6773 0.7335 0.0580
vn -0.0943 0.9730 0.2107
vn -0.2993 0.9307 0.2101
vn -0.5876 0.7876 0.1856
vn -0.9164 0.3460 0.2013
vn -0.6773 0.5743 0.4599
vn -0.9164 0.3900 0.0902
vn -0.8234 0.5276 0.2090
vn -0.5876 0.7011 0.4040
vn -0.1618 0.6459 0.7460
vn -0.9970 -0.0283 0.0716
vn -0.1618 -0.9816 0.1014
vn -0.4252 0.6040 0.6741
vn -0.7679 0.4197 0.4839
vn -0.2190 0.3467 0.9121
vn -0.5562 0.3845 0.7367
vn -0.8347 0.1903 0.5167
vn -0.8173 -0.2122 0.5357
vn -0.9450 -0.3157 0.0851
vn -0.7679 -0.6372 0.0652
vn -0.9450 0.1718 0.2782
vn -0.9645 -0.0972 0.2454
vn -0.8347 -0.4925 0.2463
vn -0.2190 -0.8772 0.4273
vn -0.2347 -0.3580 0.9038
vn -0.4252 -0.9017 0.0777
vn -0.5562 -0.7847 0.2736
vn -0.6716 -0.2728 0.6888
vn 0.9970 0.0283 -0.0716
vn 0.1618 -0.6459 -0.7460
vn 0.1618 0.9816 -0.1014
vn 0.9450 -0.1718 -0.2782
vn 0.7679 -0.4197 -0.4839
vn 0.9450 0.3157 -0.0851
vn 0.9645 0.0972 -0.2454
vn 0.8347 -0.1903 -0.5167
vn 0.8173 0.2122 -0.5357
vn 0.2190 -0.3467 -0.9121
vn 0.2347 0.3580 -0.9038
vn 0.4252 -0.6040 -0.6741
vn 0.5562 -0.3846 -0.7367
vn 0.6716 0.2728 -0.6888
vn 0.4252 0.9017 -0.0777
vn 0.7679 0.6372 -0.0652
vn 0.2190 0.8772 -0.4273
vn 0.5562 0.7847 -0.2736
vn 0.8347 0.4925 -0.2463
vn 0.0896 -0.7608 -0.6428
vn 0.9885 -0.1406 -0.0557
vn 0.0896 -0.9946 -0.0525
vn 0.3634 -0.7339 -0.5739
vn 0.6773 -0.5743 -0.4599
vn 0.0943 -0.8534 -0.5127
vn 0.2993 -0.8222 -0.4842
vn 0.5876 -0.7011 -0.4040
vn 0.4758 -0.8178 -0.3239
vn 0.9164 -0.3900 -0.0902
vn 0.6773 -0.7335 -0.0580
vn 0.9164 -0.3460 -0.2013
vn 0.8234 -0.5276 -0.2090
vn 0.5876 -0.7876 -0.1856
vn 0.0943 -0.9730 -0.2107
vn 0.0837 -0.9265 -0.3670
vn 0.3634 -0.9278 -0.0842
vn 0.2993 -0.9307 -0.2101
vn 0.2500 -0.9002 -0.3565
vn -0.1618 -0.6459 -0.7460
vn -0.9970 0.0283 -0.0716
vn -0.1618 0.9816 -0.1014
vn -0.4252 -0.6040 -0.6741
vn -0.7679 -0.4197 -0.4839
vn -0.2190 -0.3467 -0.9121
vn -0.5562 -0.3845 -0.7367
vn -0.8347 -0.1903 -0.5167
vn -0.8173 0.2122 -0.5357
vn -0.9450 0.3157 -0.0851
vn -0.7679 0.6372 -0.0653
vn -0.9450 -0.1718 -0.2782
vn -0.9645 0.0972 -0.2454
vn -0.8347 0.4925 -0.2463
vn -0.2190 0.8772 -0.4273
vn -0.2347 0.3580 -0.9038
vn -0.4252 0.9017 -0.0777
vn -0.5562 0.7847 -0.2736
vn -0.6716 0.2728 -0.6888
vn -0.0896 -0.9946 -0.0525
vn -0.9885 -0.1406 -0.0557
vn -0.0896 -0.7608 -0.6428
vn -0.3634 -0.9278 -0.0842
vn -0.6773 -0.7335 -0.0580
vn -0.0943 -0.9730 -0.2107
vn -0.2993 -0.9307 -0.2101
vn -0.5876 -0.7876 -0.1856
vn -0.4758 -0.8178 -0.3239
vn -0.9164 -0.3460 -0.2013
vn -0.6773 -0.5743 -0.4599
vn -0.9164 -0.3900 -0.0902
vn -0.8234 -0.5276 -0.2090
vn -0.5876 -0.7011 -0.4040
vn -0.0943 -0.8534 -0.5127
vn -0.0837 -0.9265 -0.3670
vn -0.3634 -0.7339 -0.5739
vn -0.2993 -0.8222 -0.4842
vn -0.2500 -0.9002 -0.3565
vt 0.741602 0.595140
vt 0.326923 0.404860
vt 0.326923 0.595140
vt 0.255531 0.404860
vt 0.308647 0.595140
vt 0.308647 0.404860
vt 0.679462 0.521620
vt 0.320538 0.478380
vt 0.725484 0.478380
vt 0.258398 0.595140
vt 0.673077 0.404860
vt 0.673077 0.595140
vt 0.691353 0.595140
vt 0.744470 0.404860
vt 0.744470 0.595140
vt 0.681432 0.526596
vt 0.683299 0.523566
vt 0.677997 0.525666
vt 0.679758 0.529119
vt 0.684380 0.527288
vt 0.686906 0.524882
vt 0.681432 0.603737
vt 0.682281 0.601220
vt 0.684380 0.602168
vt 0.677709 0.595140
vt 0.674542 0.599186
vt 0.682809 0.595140
vt 0.678737 0.599043
vt 0.676269 0.602615
vt 0.679758 0.602168
vt 0.689734 0.599186
vt 0.687600 0.595140
vt 0.686906 0.602615
vt 0.686090 0.599043
vt 0.682606 0.598944
vt 0.742168 0.599043
vt 0.745061 0.595140
vt 0.737905 0.599186
vt 0.739129 0.602168
vt 0.744859 0.598944
vt 0.746821 0.595140
vt 0.742168 0.469472
vt 0.741784 0.471924
vt 0.744859 0.470705
vt 0.730949 0.478796
vt 0.729182 0.474334
vt 0.736476 0.478309
vt 0.735362 0.474467
vt 0.733543 0.470905
vt 0.740381 0.474307
vt 0.739129 0.471147
vt 0.595140 0.475047
vt 0.599043 0.473448
vt 0.599186 0.476992
vt 0.595140 0.472277
vt 0.598944 0.470705
vt 0.602168 0.474307
vt 0.602615 0.478309
vt 0.743743 0.473448
vt 0.687600 0.404860
vt 0.689734 0.400814
vt 0.691353 0.404860
vt 0.682809 0.404860
vt 0.686090 0.400957
vt 0.686906 0.397385
vt 0.682281 0.398780
vt 0.684380 0.397832
vt 0.674542 0.400814
vt 0.677709 0.404860
vt 0.676269 0.397385
vt 0.678737 0.400957
vt 0.682606 0.401056
vt 0.681432 0.526596
vt 0.676269 0.529095
vt 0.681432 0.396263
vt 0.679758 0.397832
vt 0.404860 0.475047
vt 0.400957 0.473448
vt 0.404860 0.472277
vt 0.400814 0.476992
vt 0.397832 0.474307
vt 0.401056 0.470705
vt 0.404860 0.469929
vt 0.743743 0.473448
vt 0.729182 0.474334
vt 0.741602 0.404860
vt 0.742168 0.400957
vt 0.737905 0.400814
vt 0.745061 0.404860
vt 0.744859 0.401056
vt 0.739129 0.397832
vt 0.733543 0.397385
vt 0.269051 0.521204
vt 0.270818 0.525666
vt 0.274516 0.521620
vt 0.263524 0.521691
vt 0.264638 0.525533
vt 0.266457 0.529095
vt 0.259619 0.525693
vt 0.260871 0.528853
vt 0.595140 0.524953
vt 0.599043 0.526552
vt 0.599186 0.523008
vt 0.595140 0.527723
vt 0.598944 0.529294
vt 0.602168 0.525693
vt 0.602615 0.521691
vt 0.256257 0.526552
vt 0.258216 0.528076
vt 0.257832 0.599043
vt 0.254939 0.595140
vt 0.262095 0.599186
vt 0.260871 0.602168
vt 0.255141 0.598944
vt 0.253179 0.595140
vt 0.257832 0.530528
vt 0.255141 0.529294
vt 0.310266 0.599186
vt 0.312400 0.595140
vt 0.313094 0.602615
vt 0.313910 0.599043
vt 0.317191 0.595140
vt 0.317719 0.601220
vt 0.317394 0.598944
vt 0.318568 0.473404
vt 0.316701 0.476434
vt 0.322003 0.474334
vt 0.320242 0.470881
vt 0.315620 0.472712
vt 0.313094 0.475118
vt 0.318568 0.603737
vt 0.315620 0.602168
vt 0.322291 0.595140
vt 0.325458 0.599186
vt 0.321263 0.599043
vt 0.323731 0.602615
vt 0.320242 0.602168
vt 0.404860 0.524953
vt 0.400957 0.526552
vt 0.404860 0.527723
vt 0.400814 0.523008
vt 0.397832 0.525693
vt 0.401056 0.529294
vt 0.404860 0.530071
vt 0.256257 0.526552
vt 0.258398 0.404860
vt 0.257832 0.400957
vt 0.262095 0.400814
vt 0.254939 0.404860
vt 0.255141 0.401056
vt 0.260871 0.397832
vt 0.266457 0.397385
vt 0.325458 0.400814
vt 0.322291 0.404860
vt 0.323731 0.397385
vt 0.321263 0.400957
vt 0.317191 0.404860
vt 0.317719 0.398780
vt 0.317394 0.401056
vt 0.318568 0.473404
vt 0.323731 0.470905
vt 0.318568 0.396263
vt 0.320242 0.397832
vt 0.312400 0.404860
vt 0.310266 0.400814
vt 0.313910 0.400957
vt 0.313094 0.397385
vt 0.315620 0.397832
vt 0.733543 0.602615
vt 0.323731 0.470905
vt 0.741224 0.599186
vt 0.736476 0.602615
vt 0.263524 0.397385
vt 0.258776 0.400814
vt 0.736476 0.397385
vt 0.741224 0.400814
vt 0.263524 0.602615
vt 0.258776 0.599186
vt 0.255531 0.595140
vt 0.253179 0.404860
vt 0.595140 0.530071
vt 0.266457 0.602615
vt 0.676269 0.529095
vt 0.746821 0.404860
vt 0.595140 0.469929
vt 0.397385 0.478309
vt 0.397385 0.521691
s 1
f 20/1/20 134/2/134 98/3/98
f 115/4/115 96/5/96 136/6/136
f 41/7/41 135/8/135 59/9/59
f 79/10/79 40/11/40 2/12/2
f 3/13/3 58/14/58 22/15/22
f 1/7/1 7/16/7 6/17/6
f 4/18/4 8/19/8 7/16/7
f 6/17/6 19/20/19 16/21/16
f 7/22/7 9/23/9 19/24/19
f 10/25/10 12/26/12 2/12/2
f 11/27/11 13/28/13 10/25/10
f 13/28/13 5/29/5 12/26/12
f 13/28/13 9/23/9 8/30/8
f 15/31/15 17/32/17 3/13/3
f 16/33/16 18/34/18 15/31/15
f 18/34/18 11/27/11 17/32/17
f 18/34/18 9/23/9 14/35/14
f 20/1/20 26/36/26 25/37/25
f 23/38/23 27/39/27 26/36/26
f 25/37/25 38/40/38 35/41/35
f 26/42/26 28/43/28 38/44/38
f 29/45/29 31/46/31 21/9/21
f 30/47/30 32/48/32 29/45/29
f 32/48/32 24/49/24 31/46/31
f 33/50/33 27/51/27 32/48/32
f 22/52/22 37/53/37 36/54/36
f 34/55/34 38/56/38 37/53/37
f 36/54/36 33/57/33 30/58/30
f 37/59/37 28/43/28 33/50/33
f 42/60/42 44/61/44 39/62/39
f 43/63/43 45/64/45 42/60/42
f 45/64/45 54/65/54 44/61/44
f 45/64/45 47/66/47 57/67/57
f 48/68/48 50/69/50 40/11/40
f 49/70/49 51/71/51 48/68/48
f 51/71/51 43/63/43 50/69/50
f 51/71/51 47/66/47 46/72/46
f 41/7/41 56/73/56 55/18/55
f 53/17/53 57/20/57 56/73/56
f 55/18/55 52/19/52 49/74/49
f 56/75/56 47/66/47 52/76/52
f 58/77/58 64/78/64 63/79/63
f 61/80/61 65/81/65 64/78/64
f 63/79/63 76/82/76 73/83/73
f 64/84/64 66/43/66 76/44/76
f 67/85/67 69/45/69 59/9/59
f 68/49/68 70/48/70 67/85/67
f 70/48/70 62/47/62 69/45/69
f 71/51/71 65/50/65 70/48/70
f 60/86/60 75/87/75 74/88/74
f 72/89/72 76/90/76 75/87/75
f 74/88/74 71/91/71 68/92/68
f 75/42/75 66/43/66 71/51/71
f 80/93/80 82/94/82 77/95/77
f 81/96/81 83/97/83 80/93/80
f 83/97/83 92/98/92 82/94/82
f 84/99/84 95/100/95 83/97/83
f 78/101/78 89/102/89 88/103/88
f 86/104/86 90/105/90 89/102/89
f 88/103/88 84/106/84 81/107/81
f 89/108/89 85/109/85 84/99/84
f 79/10/79 94/110/94 93/111/93
f 91/112/91 95/113/95 94/110/94
f 93/111/93 90/114/90 87/115/87
f 94/116/94 85/109/85 90/117/90
f 99/118/99 101/119/101 96/5/96
f 100/120/100 102/121/102 99/118/99
f 102/121/102 111/122/111 101/119/101
f 102/121/102 104/123/104 114/124/114
f 97/8/97 108/125/108 107/126/107
f 105/127/105 109/128/109 108/125/108
f 107/126/107 103/129/103 100/130/100
f 108/131/108 104/123/104 103/132/103
f 110/133/110 112/134/112 98/3/98
f 111/122/111 113/135/113 110/133/110
f 113/135/113 106/136/106 112/134/112
f 113/135/113 104/123/104 109/137/109
f 115/138/115 121/139/121 120/140/120
f 118/141/118 122/142/122 121/139/121
f 120/140/120 133/143/133 130/144/130
f 121/145/121 123/109/123 133/117/133
f 124/94/124 126/93/126 116/95/116
f 125/98/125 127/97/127 124/94/124
f 127/97/127 119/96/119 126/93/126
f 128/100/128 122/99/122 127/97/127
f 117/146/117 132/147/132 131/148/131
f 129/149/129 133/150/133 132/147/132
f 131/148/131 128/151/128 125/152/125
f 132/116/132 123/109/123 128/100/128
f 137/153/137 139/154/139 134/2/134
f 138/155/138 140/156/140 137/153/137
f 140/156/140 149/157/149 139/154/139
f 140/156/140 142/158/142 152/159/152
f 135/8/135 146/160/146 145/127/145
f 143/126/143 147/129/147 146/160/146
f 145/127/145 141/128/141 138/161/138
f 146/162/146 142/158/142 141/163/141
f 148/164/148 150/165/150 136/6/136
f 149/157/149 151/166/151 148/164/148
f 151/166/151 144/167/144 150/165/150
f 151/166/151 142/158/142 147/168/147
f 134/2/134 110/133/110 98/3/98
f 139/154/139 111/122/111 110/133/110
f 149/157/149 101/119/101 111/122/111
f 148/164/148 96/5/96 101/119/101
f 98/3/98 23/38/23 20/1/20
f 112/134/112 24/169/24 23/38/23
f 106/170/106 31/46/31 24/49/24
f 105/127/105 21/9/21 31/46/31
f 3/13/3 36/171/36 15/31/15
f 15/31/15 30/172/30 16/33/16
f 16/21/16 29/45/29 6/17/6
f 6/17/6 21/9/21 1/7/1
f 116/95/116 143/126/143 135/8/135
f 126/93/126 144/130/144 143/126/143
f 119/173/119 150/165/150 144/167/144
f 118/174/118 136/6/136 150/165/150
f 59/9/59 53/17/53 41/7/41
f 69/45/69 54/21/54 53/17/53
f 62/175/62 44/61/44 54/65/54
f 61/176/61 39/62/39 44/61/44
f 77/95/77 107/126/107 80/93/80
f 80/93/80 100/130/100 81/96/81
f 81/177/81 99/118/99 88/178/88
f 88/178/88 96/5/96 78/179/78
f 40/11/40 131/148/131 48/68/48
f 48/68/48 125/152/125 49/70/49
f 49/74/49 124/94/124 55/18/55
f 55/18/55 116/95/116 41/7/41
f 40/11/40 10/25/10 2/12/2
f 50/69/50 11/27/11 10/25/10
f 43/63/43 17/32/17 11/27/11
f 42/60/42 3/13/3 17/32/17
f 134/2/134 74/88/74 137/153/137
f 137/153/137 68/92/68 138/155/138
f 138/161/138 67/85/67 145/127/145
f 145/127/145 59/9/59 135/8/135
f 79/10/79 129/149/129 117/146/117
f 93/111/93 130/180/130 129/149/129
f 87/181/87 120/140/120 130/144/130
f 86/104/86 115/138/115 120/140/120
f 2/12/2 91/112/91 79/10/79
f 12/26/12 92/182/92 91/112/91
f 5/183/5 82/94/82 92/98/92
f 4/18/4 77/95/77 82/94/82
f 20/1/20 72/89/72 60/86/60
f 25/37/25 73/184/73 72/89/72
f 35/185/35 63/79/63 73/83/73
f 34/55/34 58/77/58 63/79/63
f 97/8/97 1/7/1 21/9/21
f 20/1/20 60/86/60 134/2/134
f 115/4/115 78/179/78 96/5/96
f 41/7/41 116/95/116 135/8/135
f 79/10/79 117/146/117 40/11/40
f 3/13/3 39/62/39 58/14/58
f 1/7/1 4/18/4 7/16/7
f 4/18/4 5/183/5 8/19/8
f 6/17/6 7/16/7 19/20/19
f 7/22/7 8/30/8 9/23/9
f 10/25/10 13/28/13 12/26/12
f 11/27/11 14/35/14 13/28/13
f 13/28/13 8/30/8 5/29/5
f 13/28/13 14/35/14 9/23/9
f 15/31/15 18/34/18 17/32/17
f 16/33/16 19/24/19 18/34/18
f 18/34/18 14/35/14 11/27/11
f 18/34/18 19/24/19 9/23/9
f 20/1/20 23/38/23 26/36/26
f 23/38/23 24/169/24 27/39/27
f 25/37/25 26/36/26 38/40/38
f 26/42/26 27/51/27 28/43/28
f 29/45/29 32/48/32 31/46/31
f 30/47/30 33/50/33 32/48/32
f 32/48/32 27/51/27 24/49/24
f 33/50/33 28/43/28 27/51/27
f 22/52/22 34/55/34 37/53/37
f 34/55/34 35/185/35 38/56/38
f 36/54/36 37/53/37 33/57/33
f 37/59/37 38/44/38 28/43/28
f 42/60/42 45/64/45 44/61/44
f 43/63/43 46/72/46 45/64/45
f 45/64/45 57/67/57 54/65/54
f 45/64/45 46/72/46 47/66/47
f 48/68/48 51/71/51 50/69/50
f 49/70/49 52/76/52 51/71/51
f 51/71/51 46/72/46 43/63/43
f 51/71/51 52/76/52 47/66/47
f 41/7/41 53/17/53 56/73/56
f 53/17/53 54/21/54 57/20/57
f 55/18/55 56/73/56 52/19/52
f 56/75/56 57/67/57 47/66/47
f 58/77/58 61/80/61 64/78/64
f 61/80/61 62/186/62 65/81/65
f 63/79/63 64/78/64 76/82/76
f 64/84/64 65/50/65 66/43/66
f 67/85/67 70/48/70 69/45/69
f 68/49/68 71/51/71 70/48/70
f 70/48/70 65/50/65 62/47/62
f 71/51/71 66/43/66 65/50/65
f 60/86/60 72/89/72 75/87/75
f 72/89/72 73/184/73 76/90/76
f 74/88/74 75/87/75 71/91/71
f 75/42/75 76/44/76 66/43/66
f 80/93/80 83/97/83 82/94/82
f 81/96/81 84/99/84 83/97/83
f 83/97/83 95/100/95 92/98/92
f 84/99/84 85/109/85 95/100/95
f 78/101/78 86/104/86 89/102/89
f 86/104/86 87/181/87 90/105/90
f 88/103/88 89/102/89 84/106/84
f 89/108/89 90/117/90 85/109/85
f 79/10/79 91/112/91 94/110/94
f 91/112/91 92/182/92 95/113/95
f 93/111/93 94/110/94 90/114/90
f 94/116/94 95/100/95 85/109/85
f 99/118/99 102/121/102 101/119/101
f 100/120/100 103/132/103 102/121/102
f 102/121/102 114/124/114 111/122/111
f 102/121/102 103/132/103 104/123/104
f 97/8/97 105/127/105 108/125/108
f 105/127/105 106/170/106 109/128/109
f 107/126/107 108/125/108 103/129/103
f 108/131/108 109/137/109 104/123/104
f 110/133/110 113/135/113 112/134/112
f 111/122/111 114/124/114 113/135/113
f 113/135/113 109/137/109 106/136/106
f 113/135/113 114/124/114 104/123/104
f 115/138/115 118/141/118 121/139/121
f 118/141/118 119/187/119 122/142/122
f 120/140/120 121/139/121 133/143/133
f 121/145/121 122/99/122 123/109/123
f 124/94/124 127/97/127 126/93/126
f 125/98/125 128/100/128 127/97/127
f 127/97/127 122/99/122 119/96/119
f 128/100/128 123/109/123 122/99/122
f 117/146/117 129/149/129 132/147/132
f 129/149/129 130/180/130 133/150/133
f 131/148/131 132/147/132 128/151/128
f 132/116/132 133/117/133 123/109/123
f 137/153/137 140/156/140 139/154/139
f 138/155/138 141/163/141 140/156/140
f 140/156/140 152/159/152 149/157/149
f 140/156/140 141/163/141 142/158/142
f 135/8/135 143/126/143 146/160/146
f 143/126/143 144/130/144 147/129/147
f 145/127/145 146/160/146 141/128/141
f 146/162/146 147/168/147 142/158/142
f 148/164/148 151/166/151 150/165/150
f 149/157/149 152/159/152 151/166/151
f 151/166/151 147/168/147 144/167/144
f 151/166/151 152/159/152 142/158/142
f 134/2/134 139/154/139 110/133/110
f 139/154/139 149/157/149 111/122/111
f 149/157/149 148/164/148 101/119/101
f 148/164/148 136/6/136 96/5/96
f 98/3/98 112/134/112 23/38/23
f 112/134/112 106/136/106 24/169/24
f 106/170/106 105/127/105 31/46/31
f 105/127/105 97/8/97 21/9/21
f 3/13/3 22/15/22 36/171/36
f 15/31/15 36/171/36 30/172/30
f 16/21/16 30/47/30 29/45/29
f 6/17/6 29/45/29 21/9/21
f 116/95/116 126/93/126 143/126/143
f 126/93/126 119/96/119 144/130/144
f 119/173/119 118/174/118 150/165/150
f 118/174/118 115/4/115 136/6/136
f 59/9/59 69/45/69 53/17/53
f 69/45/69 62/47/62 54/21/54
f 62/175/62 61/176/61 44/61/44
f 61/176/61 58/14/58 39/62/39
f 77/95/77 97/8/97 107/126/107
f 80/93/80 107/126/107 100/130/100
f 81/177/81 100/120/100 99/118/99
f 88/178/88 99/118/99 96/5/96
f 40/11/40 117/146/117 131/148/131
f 48/68/48 131/148/131 125/152/125
f 49/74/49 125/98/125 124/94/124
f 55/18/55 124/94/124 116/95/116
f 40/11/40 50/69/50 10/25/10
f 50/69/50 43/63/43 11/27/11
f 43/63/43 42/60/42 17/32/17
f 42/60/42 39/62/39 3/13/3
f 134/2/134 60/86/60 74/88/74
f 137/153/137 74/88/74 68/92/68
f 138/161/138 68/49/68 67/85/67
f 145/127/145 67/85/67 59/9/59
f 79/10/79 93/111/93 129/149/129
f 93/111/93 87/115/87 130/180/130
f 87/181/87 86/104/86 120/140/120
f 86/104/86 78/101/78 115/138/115
f 2/12/2 12/26/12 91/112/91
f 12/26/12 5/29/5 92/182/92
f 5/183/5 4/18/4 82/94/82
f 4/18/4 1/7/1 77/95/77
f 20/1/20 25/37/25 72/89/72
f 25/37/25 35/41/35 73/184/73
f 35/185/35 34/55/34 63/79/63
f 34/55/34 22/52/22 58/77/58
f 97/8/97 77/95/77 1/7/1
