# Blender 4.2.0
# www.blender.org
o Sphere
v 0.000000 14.350601 -46.194000
v 0.000000 -0.000011 -50.000000
v 0.000000 -14.350622 -46.194000
v 7.322350 34.645500 -17.677658
v 13.529900 26.516506 -32.664059
v 17.677650 14.350603 -42.677650
v 19.134150 -0.000009 -46.194000
v 17.677650 -14.350620 -42.677650
v 13.529900 34.645500 -13.529909
v 25.000000 26.516510 -25.000006
v 32.664101 14.350605 -32.664047
v 35.355350 -0.000008 -35.355350
v 32.664101 -14.350619 -32.664047
v 17.677650 34.645500 -7.322357
v 32.664047 26.516510 -13.529906
v 42.677650 14.350609 -17.677656
v 46.194000 -0.000003 -19.134150
v 42.677650 -14.350616 -17.677645
v 19.134150 34.645500 -0.000009
v 35.355350 26.516514 -0.000007
v 46.194000 14.350613 -0.000003
v 50.000000 0.000000 0.000000
v 46.194000 -14.350613 0.000003
v 17.677650 34.645500 7.322342
v 32.664047 26.516518 13.529893
v 42.677650 14.350616 17.677694
v 46.193951 0.000003 19.134199
v 42.677650 -14.350609 17.677706
v 13.529900 34.645500 13.529890
v 25.000000 26.516518 24.999994
v 32.664047 14.350619 32.664101
v 35.355350 0.000008 35.355350
v 32.664047 -14.350605 32.664101
v 7.322350 34.645500 17.677643
v 13.529900 26.516520 32.664036
v 17.677650 14.350620 42.677650
v 19.134150 0.000009 46.194000
v 17.677650 -14.350603 42.677650
v 0.000000 34.645500 19.134142
v 0.000000 26.516520 35.355339
v 0.000000 14.350622 46.193951
v 0.000000 0.000011 50.000000
v 0.000000 -14.350601 46.193951
v 0.000000 37.500000 -0.000010
v -7.322350 34.645500 17.677643
v -13.529900 26.516520 32.664036
v -17.677700 14.350620 42.677650
v -19.134199 0.000009 46.193951
v -17.677700 -14.350603 42.677650
v -13.529900 34.645500 13.529890
v -25.000000 26.516518 24.999994
v -32.664101 14.350619 32.664047
v -35.355350 0.000008 35.355301
v -32.664101 -14.350605 32.664047
v -17.677650 34.645500 7.322293
v -32.664047 26.516518 13.529893
v -42.677650 14.350616 17.677645
v -46.194000 0.000003 19.134150
v -42.677650 -14.350609 17.677656
v -19.134150 34.645500 -0.000009
v -35.355350 26.516514 -0.000007
v -46.193951 14.350613 -0.000003
v -50.000000 -0.000000 -0.000050
v -46.193951 -14.350613 0.000003
v -17.677650 34.645500 -7.322357
v -32.664047 26.516510 -13.529906
v -42.677650 14.350609 -17.677706
v -46.193951 -0.000003 -19.134199
v -42.677650 -14.350616 -17.677694
v -13.529900 34.645500 -13.529909
v -25.000000 26.516510 -25.000006
v -32.664047 14.350605 -32.664101
v -35.355301 -0.000008 -35.355350
v -32.664047 -14.350619 -32.664101
v -7.322300 34.645500 -17.677708
v -13.529900 26.516506 -32.664059
v -17.677650 14.350603 -42.677650
v -19.134150 -0.000009 -46.194000
v -17.677650 -14.350620 -42.677650
v 0.000000 34.645500 -19.134157
v 0.000000 26.516506 -35.355362
vn -0.0000 -0.4621 0.8868
vn -0.0000 -0.0000 1.0000
vn -0.0000 0.2564 0.9666
vn -0.1222 -0.9477 0.2949
vn -0.2383 -0.7826 0.5752
vn -0.3394 -0.4621 0.8193
vn -0.3827 -0.0000 0.9239
vn -0.3699 0.2564 0.8930
vn -0.2257 -0.9477 0.2257
vn -0.4402 -0.7826 0.4402
vn -0.6271 -0.4621 0.6271
vn -0.7071 -0.0000 0.7071
vn -0.6835 0.2564 0.6835
vn -0.2949 -0.9477 0.1222
vn -0.5752 -0.7826 0.2382
vn -0.8193 -0.4621 0.3394
vn -0.9239 -0.0000 0.3827
vn -0.8930 0.2564 0.3699
vn -0.3192 -0.9477 -0.0000
vn -0.6226 -0.7826 -0.0000
vn -0.8868 -0.4621 -0.0000
vn -1.0000 -0.0000 -0.0000
vn -0.9666 0.2564 -0.0000
vn -0.2949 -0.9477 -0.1222
vn -0.5752 -0.7826 -0.2383
vn -0.8193 -0.4621 -0.3394
vn -0.9239 -0.0000 -0.3827
vn -0.8930 0.2564 -0.3699
vn -0.2257 -0.9477 -0.2257
vn -0.4402 -0.7826 -0.4402
vn -0.6271 -0.4621 -0.6271
vn -0.7071 -0.0000 -0.7071
vn -0.6835 0.2564 -0.6835
vn -0.1222 -0.9477 -0.2949
vn -0.2382 -0.7826 -0.5752
vn -0.3394 -0.4621 -0.8193
vn -0.3827 -0.0000 -0.9239
vn -0.3699 0.2564 -0.8930
vn -0.0000 -0.9477 -0.3192
vn -0.0000 -0.7826 -0.6226
vn -0.0000 -0.4621 -0.8868
vn -0.0000 -0.0000 -1.0000
vn -0.0000 0.2564 -0.9666
vn -0.0000 -1.0000 -0.0000
vn 0.1222 -0.9477 -0.2949
vn 0.2383 -0.7826 -0.5752
vn 0.3394 -0.4621 -0.8193
vn 0.3827 -0.0000 -0.9239
vn 0.3699 0.2564 -0.8930
vn 0.2257 -0.9477 -0.2257
vn 0.4402 -0.7826 -0.4402
vn 0.6271 -0.4621 -0.6271
vn 0.7071 -0.0000 -0.7071
vn 0.6835 0.2564 -0.6835
vn 0.2949 -0.9477 -0.1222
vn 0.5752 -0.7826 -0.2382
vn 0.8193 -0.4621 -0.3394
vn 0.9239 -0.0000 -0.3827
vn 0.8930 0.2564 -0.3699
vn 0.3192 -0.9477 -0.0000
vn 0.6226 -0.7826 -0.0000
vn 0.8868 -0.4621 -0.0000
vn 1.0000 -0.0000 -0.0000
vn 0.9666 0.2564 -0.0000
vn 0.2949 -0.9477 0.1222
vn 0.5752 -0.7826 0.2383
vn 0.8193 -0.4621 0.3394
vn 0.9239 -0.0000 0.3827
vn 0.8930 0.2564 0.3699
vn 0.2257 -0.9477 0.2257
vn 0.4402 -0.7826 0.4402
vn 0.6271 -0.4621 0.6271
vn 0.7071 -0.0000 0.7071
vn 0.6835 0.2564 0.6835
vn 0.1222 -0.9477 0.2949
vn 0.2382 -0.7826 0.5752
vn 0.3394 -0.4621 0.8193
vn 0.3827 -0.0000 0.9239
vn 0.3699 0.2564 0.8930
vn -0.0000 -0.9477 0.3192
vn -0.0000 -0.7826 0.6226
vt 0.875000 0.004142
vt 1.000000 0.202485
vt 1.000000 0.004142
vt 0.875000 0.400828
vt 1.000000 0.599172
vt 1.000000 0.400828
vt 1.000000 0.797515
vt 0.875000 0.797515
vt 0.937500 0.995858
vt 0.875000 0.202485
vt 0.750000 0.797515
vt 0.812500 0.995858
vt 0.750000 0.202485
vt 0.750000 0.599172
vt 0.875000 0.599172
vt 0.750000 0.400828
vt 0.625000 0.400828
vt 0.625000 0.599172
vt 0.625000 0.004142
vt 0.750000 0.004142
vt 0.625000 0.797515
vt 0.687500 0.995858
vt 0.500000 0.202485
vt 0.625000 0.202485
vt 0.500000 0.400828
vt 0.500000 0.797515
vt 0.562500 0.995858
vt 0.500000 0.599172
vt 0.500000 0.004142
vt 0.375000 0.202485
vt 0.375000 0.599172
vt 0.375000 0.797515
vt 0.437500 0.995858
vt 0.250000 0.400829
vt 0.375000 0.400828
vt 0.250000 0.599172
vt 0.250000 0.004142
vt 0.375000 0.004142
vt 0.250000 0.797515
vt 0.312500 0.995858
vt 0.125000 0.202485
vt 0.250000 0.202485
vt 0.125000 0.599172
vt 0.125000 0.004142
vt 0.125000 0.400829
vt 0.125000 0.797515
vt 0.187500 0.995858
vt 0.000000 0.004142
vt 0.000000 0.400829
vt 0.000000 0.797515
vt 0.062500 0.995858
vt 0.000000 0.599172
vt -0.125000 0.400829
vt -0.125000 0.797515
vt -0.062500 0.995858
vt 0.000000 0.202485
vt -0.125000 0.599172
vt -0.125000 0.004142
vt -0.125000 0.202485
vt -0.250000 0.400829
vt -0.250000 0.599172
vt -0.250000 0.004142
vt -0.250000 0.797515
vt -0.187500 0.995858
vt -0.375000 0.599172
vt -0.375000 0.004142
vt -0.250000 0.202485
vt -0.375000 0.400829
vt -0.375000 0.797515
vt -0.312500 0.995858
vt -0.500000 0.004142
vt -0.375000 0.202485
vt -0.500000 0.400829
vt -0.500000 0.797515
vt -0.437500 0.995858
vt 1.500000 0.797515
vt 1.375000 0.797515
vt 1.437500 0.995858
vt 1.500000 0.202485
vt 1.375000 0.400829
vt 1.500000 0.400829
vt 1.375000 0.599172
vt 1.500000 0.599172
vt 1.375000 0.004142
vt 1.500000 0.004142
vt 1.375000 0.202485
vt 1.250000 0.400829
vt 1.250000 0.599172
vt 1.250000 0.004142
vt 1.250000 0.797515
vt 1.312500 0.995858
vt 1.125000 0.004142
vt 1.250000 0.202485
vt 1.125000 0.400829
vt 1.125000 0.797515
vt 1.187500 0.995858
vt 1.125000 0.599172
vt 1.125000 0.202485
vt 1.062500 0.995858
vt -0.500000 0.202485
vt -0.500000 0.599172
s 1
f 8/1/8 2/2/2 3/3/3
f 6/4/6 81/5/81 1/6/1
f 80/7/80 4/8/4 44/9/44
f 7/10/7 1/6/1 2/2/2
f 81/5/81 4/8/4 80/7/80
f 4/8/4 9/11/9 44/12/44
f 12/13/12 6/4/6 7/10/7
f 10/14/10 4/8/4 5/15/5
f 8/1/8 12/13/12 7/10/7
f 11/16/11 5/15/5 6/4/6
f 12/13/12 16/17/16 11/16/11
f 15/18/15 9/11/9 10/14/10
f 18/19/18 12/13/12 13/20/13
f 16/17/16 10/14/10 11/16/11
f 9/11/9 14/21/14 44/22/44
f 18/19/18 22/23/22 17/24/17
f 21/25/21 15/18/15 16/17/16
f 14/21/14 19/26/19 44/27/44
f 22/23/22 16/17/16 17/24/17
f 20/28/20 14/21/14 15/18/15
f 23/29/23 27/30/27 22/23/22
f 21/25/21 25/31/25 20/28/20
f 19/26/19 24/32/24 44/33/44
f 27/30/27 21/25/21 22/23/22
f 25/31/25 19/26/19 20/28/20
f 27/30/27 31/34/31 26/35/26
f 30/36/30 24/32/24 25/31/25
f 33/37/33 27/30/27 28/38/28
f 31/34/31 25/31/25 26/35/26
f 24/32/24 29/39/29 44/40/44
f 37/41/37 31/34/31 32/42/32
f 35/43/35 29/39/29 30/36/30
f 38/44/38 32/42/32 33/37/33
f 36/45/36 30/36/30 31/34/31
f 29/39/29 34/46/34 44/47/44
f 43/48/43 37/41/37 38/44/38
f 41/49/41 35/43/35 36/45/36
f 34/46/34 39/50/39 44/51/44
f 37/41/37 41/49/41 36/45/36
f 40/52/40 34/46/34 35/43/35
f 47/53/47 40/52/40 41/49/41
f 39/50/39 45/54/45 44/55/44
f 42/56/42 47/53/47 41/49/41
f 46/57/46 39/50/39 40/52/40
f 49/58/49 42/56/42 43/48/43
f 48/59/48 52/60/52 47/53/47
f 51/61/51 45/54/45 46/57/46
f 54/62/54 48/59/48 49/58/49
f 52/60/52 46/57/46 47/53/47
f 45/54/45 50/63/50 44/64/44
f 56/65/56 50/63/50 51/61/51
f 59/66/59 53/67/53 54/62/54
f 57/68/57 51/61/51 52/60/52
f 50/63/50 55/69/55 44/70/44
f 53/67/53 57/68/57 52/60/52
f 64/71/64 58/72/58 59/66/59
f 62/73/62 56/65/56 57/68/57
f 55/69/55 60/74/60 44/75/44
f 58/72/58 62/73/62 57/68/57
f 56/65/56 60/74/60 55/69/55
f 60/76/60 65/77/65 44/78/44
f 63/79/63 67/80/67 62/81/62
f 66/82/66 60/76/60 61/83/61
f 69/84/69 63/79/63 64/85/64
f 67/80/67 61/83/61 62/81/62
f 68/86/68 72/87/72 67/80/67
f 71/88/71 65/77/65 66/82/66
f 74/89/74 68/86/68 69/84/69
f 72/87/72 66/82/66 67/80/67
f 65/77/65 70/90/70 44/91/44
f 79/92/79 73/93/73 74/89/74
f 77/94/77 71/88/71 72/87/72
f 70/90/70 75/95/75 44/96/44
f 73/93/73 77/94/77 72/87/72
f 76/97/76 70/90/70 71/88/71
f 3/3/3 78/98/78 79/92/79
f 1/6/1 76/97/76 77/94/77
f 75/95/75 80/7/80 44/99/44
f 2/2/2 77/94/77 78/98/78
f 76/97/76 80/7/80 75/95/75
f 8/1/8 7/10/7 2/2/2
f 6/4/6 5/15/5 81/5/81
f 7/10/7 6/4/6 1/6/1
f 81/5/81 5/15/5 4/8/4
f 12/13/12 11/16/11 6/4/6
f 10/14/10 9/11/9 4/8/4
f 8/1/8 13/20/13 12/13/12
f 11/16/11 10/14/10 5/15/5
f 12/13/12 17/24/17 16/17/16
f 15/18/15 14/21/14 9/11/9
f 18/19/18 17/24/17 12/13/12
f 16/17/16 15/18/15 10/14/10
f 18/19/18 23/29/23 22/23/22
f 21/25/21 20/28/20 15/18/15
f 22/23/22 21/25/21 16/17/16
f 20/28/20 19/26/19 14/21/14
f 23/29/23 28/38/28 27/30/27
f 21/25/21 26/35/26 25/31/25
f 27/30/27 26/35/26 21/25/21
f 25/31/25 24/32/24 19/26/19
f 27/30/27 32/42/32 31/34/31
f 30/36/30 29/39/29 24/32/24
f 33/37/33 32/42/32 27/30/27
f 31/34/31 30/36/30 25/31/25
f 37/41/37 36/45/36 31/34/31
f 35/43/35 34/46/34 29/39/29
f 38/44/38 37/41/37 32/42/32
f 36/45/36 35/43/35 30/36/30
f 43/48/43 42/56/42 37/41/37
f 41/49/41 40/52/40 35/43/35
f 37/41/37 42/56/42 41/49/41
f 40/52/40 39/50/39 34/46/34
f 47/53/47 46/57/46 40/52/40
f 42/56/42 48/59/48 47/53/47
f 46/57/46 45/54/45 39/50/39
f 49/58/49 48/59/48 42/56/42
f 48/59/48 53/67/53 52/60/52
f 51/61/51 50/63/50 45/54/45
f 54/62/54 53/67/53 48/59/48
f 52/60/52 51/61/51 46/57/46
f 56/65/56 55/69/55 50/63/50
f 59/66/59 58/72/58 53/67/53
f 57/68/57 56/65/56 51/61/51
f 53/67/53 58/72/58 57/68/57
f 64/71/64 63/100/63 58/72/58
f 62/73/62 61/101/61 56/65/56
f 58/72/58 63/100/63 62/73/62
f 56/65/56 61/101/61 60/74/60
f 63/79/63 68/86/68 67/80/67
f 66/82/66 65/77/65 60/76/60
f 69/84/69 68/86/68 63/79/63
f 67/80/67 66/82/66 61/83/61
f 68/86/68 73/93/73 72/87/72
f 71/88/71 70/90/70 65/77/65
f 74/89/74 73/93/73 68/86/68
f 72/87/72 71/88/71 66/82/66
f 79/92/79 78/98/78 73/93/73
f 77/94/77 76/97/76 71/88/71
f 73/93/73 78/98/78 77/94/77
f 76/97/76 75/95/75 70/90/70
f 3/3/3 2/2/2 78/98/78
f 1/6/1 81/5/81 76/97/76
f 2/2/2 1/6/1 77/94/77
f 76/97/76 81/5/81 80/7/80
