# Blender 4.4.1
# www.blender.org
mtllib eraser.mtl
o Cube
v 0.375000 0.076696 0.677451
v 0.337500 0.114196 0.654804
v 0.337500 0.088518 0.719634
v 0.372145 0.091047 0.672256
v 0.364016 0.103212 0.666128
v 0.372145 0.083597 0.691064
v 0.367996 0.094348 0.684443
v 0.362430 0.103296 0.678502
v 0.359066 0.101950 0.687454
v 0.337500 0.112241 0.671235
v 0.337500 0.106675 0.689325
v 0.351851 0.111341 0.659999
v 0.351345 0.108296 0.674879
v 0.350991 0.104862 0.688607
v 0.351851 0.089995 0.713893
v 0.364016 0.088267 0.703861
v 0.337500 0.098345 0.706321
v 0.351345 0.097965 0.700963
v 0.362430 0.096802 0.694900
v 0.337500 -0.114196 0.897889
v 0.375000 -0.076696 0.840711
v 0.337500 -0.088518 0.908060
v 0.351851 -0.111341 0.884773
v 0.364016 -0.103212 0.869300
v 0.337500 -0.112241 0.910160
v 0.351345 -0.108296 0.899896
v 0.362430 -0.102353 0.889116
v 0.359066 -0.099598 0.898534
v 0.372145 -0.075219 0.860097
v 0.364016 -0.076947 0.879704
v 0.372145 -0.091047 0.853828
v 0.367996 -0.090574 0.875751
v 0.362430 -0.091142 0.893557
v 0.337500 -0.098345 0.915664
v 0.337500 -0.106675 0.916401
v 0.351851 -0.081617 0.896546
v 0.351345 -0.094192 0.905482
v 0.350991 -0.103919 0.909443
v -0.337500 0.088518 0.719634
v -0.337500 0.114196 0.654804
v -0.375000 0.076696 0.677451
v -0.337500 0.098345 0.706321
v -0.337500 0.106675 0.689325
v -0.351851 0.089995 0.713893
v -0.351345 0.097965 0.700963
v -0.350991 0.104862 0.688607
v -0.359066 0.101950 0.687454
v -0.351851 0.111341 0.659999
v -0.364017 0.103212 0.666128
v -0.337500 0.112241 0.671235
v -0.351345 0.108296 0.674880
v -0.362430 0.103296 0.678502
v -0.372146 0.083597 0.691064
v -0.364017 0.088267 0.703860
v -0.372146 0.091047 0.672256
v -0.367996 0.094348 0.684443
v -0.362430 0.096802 0.694900
v -0.337500 -0.088518 0.908060
v -0.375000 -0.076696 0.840711
v -0.337500 -0.114196 0.897889
v -0.351851 -0.081617 0.896546
v -0.364017 -0.076947 0.879704
v -0.337500 -0.098345 0.915664
v -0.351345 -0.094192 0.905482
v -0.362430 -0.091142 0.893557
v -0.359066 -0.099598 0.898534
v -0.372146 -0.091047 0.853828
v -0.364017 -0.103212 0.869300
v -0.372146 -0.075219 0.860097
v -0.367996 -0.090575 0.875751
v -0.362430 -0.102353 0.889116
v -0.337500 -0.112241 0.910160
v -0.337500 -0.106675 0.916401
v -0.351851 -0.111341 0.884773
v -0.351345 -0.108296 0.899896
v -0.350991 -0.103919 0.909443
v 0.375000 0.076696 -0.759049
v 0.337500 0.088518 -0.826398
v 0.337500 0.114196 -0.816227
v 0.372146 0.075219 -0.778435
v 0.364017 0.076947 -0.798042
v 0.372146 0.091047 -0.772166
v 0.367996 0.090574 -0.794089
v 0.362430 0.091142 -0.811894
v 0.359066 0.099598 -0.816872
v 0.337500 0.098345 -0.834002
v 0.337500 0.106675 -0.834739
v 0.351851 0.081617 -0.814884
v 0.351345 0.094192 -0.823820
v 0.350991 0.103919 -0.827781
v 0.351851 0.111341 -0.803111
v 0.364017 0.103212 -0.787638
v 0.337500 0.112241 -0.828498
v 0.351345 0.108296 -0.818234
v 0.362430 0.102353 -0.807454
v 0.337500 -0.088518 -0.637972
v 0.375000 -0.076696 -0.595789
v 0.337500 -0.114196 -0.573142
v 0.351851 -0.089995 -0.632231
v 0.364017 -0.088267 -0.622198
v 0.337500 -0.098345 -0.624659
v 0.351345 -0.097965 -0.619301
v 0.362430 -0.096802 -0.613238
v 0.359066 -0.101950 -0.605792
v 0.372146 -0.091047 -0.590594
v 0.364017 -0.103212 -0.584465
v 0.372146 -0.083597 -0.609402
v 0.367996 -0.094348 -0.602781
v 0.362430 -0.103296 -0.596840
v 0.337500 -0.112241 -0.589573
v 0.337500 -0.106675 -0.607663
v 0.351851 -0.111341 -0.578337
v 0.351345 -0.108296 -0.593217
v 0.350991 -0.104862 -0.606945
v -0.337500 0.088518 -0.826398
v -0.375000 0.076696 -0.759049
v -0.337500 0.114196 -0.816227
v -0.351851 0.081617 -0.814884
v -0.364016 0.076947 -0.798042
v -0.337500 0.098345 -0.834002
v -0.351345 0.094192 -0.823820
v -0.362430 0.091142 -0.811894
v -0.359066 0.099598 -0.816872
v -0.372145 0.091047 -0.772166
v -0.364016 0.103212 -0.787638
v -0.372145 0.075219 -0.778435
v -0.367996 0.090575 -0.794089
v -0.362430 0.102353 -0.807454
v -0.337500 0.112241 -0.828498
v -0.337500 0.106675 -0.834739
v -0.351851 0.111341 -0.803111
v -0.351345 0.108296 -0.818234
v -0.350991 0.103919 -0.827781
v -0.337500 -0.114196 -0.573142
v -0.375000 -0.076696 -0.595789
v -0.337500 -0.088518 -0.637972
v -0.351851 -0.111341 -0.578337
v -0.364016 -0.103212 -0.584466
v -0.337500 -0.112241 -0.589573
v -0.351345 -0.108296 -0.593217
v -0.362430 -0.103296 -0.596840
v -0.359066 -0.101950 -0.605792
v -0.372145 -0.083597 -0.609402
v -0.364016 -0.088267 -0.622198
v -0.372145 -0.091047 -0.590594
v -0.367996 -0.094348 -0.602781
v -0.362430 -0.096802 -0.613238
v -0.337500 -0.098345 -0.624659
v -0.337500 -0.106675 -0.607663
v -0.351851 -0.089995 -0.632231
v -0.351345 -0.097965 -0.619301
v -0.350991 -0.104862 -0.606945
vn 0.1618 -0.9816 0.1014
vn -0.0896 -0.9946 -0.0525
vn 0.0896 -0.9946 -0.0525
vn -0.1619 -0.6459 -0.7460
vn 0.0896 -0.7608 -0.6428
vn -0.0896 -0.7608 -0.6428
vn -0.9885 0.1406 0.0557
vn -0.9885 -0.1406 -0.0557
vn -0.9970 -0.0283 0.0716
vn 0.1618 0.9816 -0.1014
vn -0.0896 0.9946 0.0525
vn 0.0896 0.9946 0.0525
vn 0.0896 0.7608 0.6428
vn -0.1618 0.6459 0.7460
vn 0.1618 0.6459 0.7460
vn 0.9885 0.1406 0.0557
vn 0.8234 0.5276 0.2090
vn 0.9164 0.3460 0.2013
vn 0.9164 0.3900 0.0902
vn 0.5876 0.7876 0.1856
vn 0.5876 0.7011 0.4040
vn 0.6773 0.5743 0.4599
vn 0.4758 0.8178 0.3239
vn 0.0943 0.9730 0.2107
vn 0.3634 0.9278 0.0842
vn 0.0837 0.9265 0.3669
vn 0.2993 0.9307 0.2101
vn 0.6772 0.7335 0.0580
vn 0.3634 0.7339 0.5739
vn 0.0943 0.8534 0.5127
vn 0.2993 0.8222 0.4842
vn 0.2500 0.9002 0.3565
vn 0.5562 -0.7847 0.2736
vn 0.2190 -0.8772 0.4273
vn 0.4253 -0.9017 0.0777
vn 0.8348 -0.4925 0.2463
vn 0.6716 -0.2728 0.6888
vn 0.2347 -0.3580 0.9038
vn 0.8173 -0.2122 0.5357
vn 0.9450 0.1718 0.2782
vn 0.9450 -0.3157 0.0851
vn 0.9970 -0.0284 0.0716
vn 0.7679 0.4197 0.4839
vn 0.9645 -0.0972 0.2454
vn 0.7679 -0.6372 0.0652
vn 0.8348 0.1903 0.5167
vn 0.5562 0.3845 0.7367
vn 0.4253 0.6039 0.6741
vn 0.2190 0.3466 0.9121
vn -0.0943 0.8534 0.5127
vn -0.3634 0.7339 0.5739
vn -0.0896 0.7608 0.6428
vn -0.0837 0.9265 0.3669
vn -0.2993 0.8222 0.4842
vn -0.6773 0.5743 0.4599
vn -0.4758 0.8178 0.3239
vn -0.5876 0.7011 0.4040
vn -0.3634 0.9278 0.0842
vn -0.0943 0.9730 0.2107
vn -0.6772 0.7335 0.0581
vn -0.2993 0.9307 0.2101
vn -0.2500 0.9002 0.3566
vn -0.8234 0.5276 0.2090
vn -0.9164 0.3900 0.0902
vn -0.9164 0.3460 0.2013
vn -0.5876 0.7876 0.1856
vn -0.5562 0.3845 0.7367
vn -0.2190 0.3466 0.9121
vn -0.4252 0.6039 0.6741
vn -0.8348 0.1903 0.5167
vn -0.6716 -0.2728 0.6888
vn -0.2347 -0.3580 0.9038
vn -0.8173 -0.2122 0.5357
vn -0.9450 -0.3157 0.0851
vn -0.9450 0.1718 0.2782
vn -0.7679 -0.6372 0.0653
vn -0.9645 -0.0972 0.2454
vn -0.7679 0.4197 0.4839
vn -0.8347 -0.4925 0.2463
vn -0.1618 -0.9816 0.1014
vn -0.5562 -0.7847 0.2736
vn -0.4252 -0.9017 0.0777
vn -0.2190 -0.8772 0.4273
vn 0.9450 -0.1718 -0.2782
vn 0.9450 0.3157 -0.0851
vn 0.9970 0.0283 -0.0716
vn 0.7679 -0.4197 -0.4839
vn 0.9645 0.0972 -0.2454
vn 0.7679 0.6372 -0.0653
vn 0.8348 -0.1903 -0.5167
vn 0.8348 0.4925 -0.2463
vn 0.1618 -0.6459 -0.7460
vn 0.5562 -0.3845 -0.7367
vn 0.4253 -0.6039 -0.6741
vn 0.2190 -0.3466 -0.9121
vn 0.6716 0.2728 -0.6888
vn 0.8173 0.2122 -0.5357
vn 0.5562 0.7847 -0.2736
vn 0.2190 0.8772 -0.4273
vn 0.4252 0.9017 -0.0777
vn 0.2347 0.3580 -0.9038
vn 0.3634 -0.7339 -0.5739
vn 0.0943 -0.8534 -0.5127
vn 0.6773 -0.5743 -0.4599
vn 0.2993 -0.8222 -0.4842
vn 0.0837 -0.9265 -0.3669
vn 0.4758 -0.8178 -0.3239
vn 0.2500 -0.9002 -0.3565
vn 0.9885 -0.1406 -0.0557
vn 0.8234 -0.5276 -0.2090
vn 0.9164 -0.3460 -0.2013
vn 0.9164 -0.3900 -0.0902
vn 0.5876 -0.7876 -0.1856
vn 0.5876 -0.7011 -0.4040
vn 0.0943 -0.9730 -0.2107
vn 0.3634 -0.9278 -0.0842
vn 0.2993 -0.9307 -0.2101
vn 0.6772 -0.7335 -0.0581
vn -0.5562 -0.3845 -0.7367
vn -0.2190 -0.3466 -0.9121
vn -0.4253 -0.6039 -0.6741
vn -0.8348 -0.1903 -0.5167
vn -0.6716 0.2728 -0.6888
vn -0.2347 0.3580 -0.9038
vn -0.8173 0.2122 -0.5357
vn -0.9450 0.3157 -0.0851
vn -0.9450 -0.1718 -0.2782
vn -0.9970 0.0284 -0.0716
vn -0.7679 0.6372 -0.0652
vn -0.9645 0.0972 -0.2454
vn -0.7679 -0.4197 -0.4839
vn -0.8348 0.4925 -0.2463
vn -0.1618 0.9816 -0.1014
vn -0.5562 0.7847 -0.2736
vn -0.4253 0.9017 -0.0777
vn -0.2190 0.8772 -0.4273
vn -0.3634 -0.9278 -0.0842
vn -0.0943 -0.9730 -0.2107
vn -0.6773 -0.7335 -0.0580
vn -0.2993 -0.9307 -0.2101
vn -0.0837 -0.9265 -0.3669
vn -0.4758 -0.8178 -0.3239
vn -0.2500 -0.9002 -0.3565
vn -0.8234 -0.5276 -0.2090
vn -0.9164 -0.3900 -0.0902
vn -0.9164 -0.3460 -0.2013
vn -0.5876 -0.7011 -0.4040
vn -0.5876 -0.7876 -0.1856
vn -0.0943 -0.8534 -0.5127
vn -0.3634 -0.7338 -0.5739
vn -0.2993 -0.8222 -0.4842
vn -0.6773 -0.5743 -0.4599
vt 0.741602 0.595140
vt 0.326923 0.404860
vt 0.326923 0.595140
vt 0.255531 0.404860
vt 0.308647 0.595140
vt 0.308647 0.404860
vt 0.679462 0.521620
vt 0.320538 0.478380
vt 0.725484 0.478380
vt 0.258398 0.595140
vt 0.673077 0.404860
vt 0.673077 0.595140
vt 0.691353 0.595140
vt 0.744470 0.404860
vt 0.744470 0.595140
vt 0.681432 0.526596
vt 0.683299 0.523566
vt 0.677997 0.525666
vt 0.679758 0.529119
vt 0.684380 0.527288
vt 0.686906 0.524882
vt 0.681432 0.603737
vt 0.682281 0.601220
vt 0.684380 0.602168
vt 0.677709 0.595140
vt 0.674542 0.599186
vt 0.682809 0.595140
vt 0.678737 0.599043
vt 0.676269 0.602615
vt 0.679758 0.602168
vt 0.689734 0.599186
vt 0.687600 0.595140
vt 0.686906 0.602615
vt 0.686090 0.599043
vt 0.682606 0.598944
vt 0.742168 0.599043
vt 0.745061 0.595140
vt 0.737905 0.599186
vt 0.739129 0.602168
vt 0.744859 0.598944
vt 0.746821 0.595140
vt 0.742168 0.469472
vt 0.741784 0.471924
vt 0.744859 0.470705
vt 0.730949 0.478796
vt 0.729182 0.474334
vt 0.736476 0.478309
vt 0.735362 0.474467
vt 0.733543 0.470905
vt 0.740381 0.474307
vt 0.739129 0.471147
vt 0.595140 0.475047
vt 0.599043 0.473448
vt 0.599186 0.476992
vt 0.595140 0.472277
vt 0.598944 0.470705
vt 0.602168 0.474307
vt 0.602615 0.478309
vt 0.743743 0.473448
vt 0.687600 0.404860
vt 0.689734 0.400814
vt 0.691353 0.404860
vt 0.682809 0.404860
vt 0.686090 0.400957
vt 0.686906 0.397385
vt 0.682281 0.398780
vt 0.684380 0.397832
vt 0.674542 0.400814
vt 0.677709 0.404860
vt 0.676269 0.397385
vt 0.678737 0.400957
vt 0.682606 0.401056
vt 0.676269 0.529095
vt 0.681432 0.396263
vt 0.679758 0.397832
vt 0.404860 0.475047
vt 0.400957 0.473448
vt 0.404860 0.472277
vt 0.400814 0.476992
vt 0.397832 0.474307
vt 0.401056 0.470705
vt 0.404860 0.469929
vt 0.741602 0.404860
vt 0.742168 0.400957
vt 0.737905 0.400814
vt 0.745061 0.404860
vt 0.744859 0.401056
vt 0.739129 0.397832
vt 0.733543 0.397385
vt 0.269051 0.521204
vt 0.270818 0.525666
vt 0.274516 0.521620
vt 0.263524 0.521691
vt 0.264638 0.525533
vt 0.266457 0.529095
vt 0.259619 0.525693
vt 0.260871 0.528853
vt 0.595140 0.524953
vt 0.599043 0.526552
vt 0.599186 0.523008
vt 0.595140 0.527723
vt 0.598944 0.529294
vt 0.602168 0.525693
vt 0.602615 0.521691
vt 0.256257 0.526552
vt 0.258216 0.528076
vt 0.257832 0.599043
vt 0.254939 0.595140
vt 0.262095 0.599186
vt 0.260871 0.602168
vt 0.255141 0.598944
vt 0.253179 0.595140
vt 0.257832 0.530528
vt 0.255141 0.529294
vt 0.310266 0.599186
vt 0.312400 0.595140
vt 0.313094 0.602615
vt 0.313910 0.599043
vt 0.317191 0.595140
vt 0.317719 0.601220
vt 0.317394 0.598944
vt 0.318568 0.473404
vt 0.316701 0.476434
vt 0.322003 0.474334
vt 0.320242 0.470881
vt 0.315620 0.472712
vt 0.313094 0.475118
vt 0.318568 0.603737
vt 0.315620 0.602168
vt 0.322291 0.595140
vt 0.325458 0.599186
vt 0.321263 0.599043
vt 0.323731 0.602615
vt 0.320242 0.602168
vt 0.404860 0.524953
vt 0.400957 0.526552
vt 0.404860 0.527723
vt 0.400814 0.523008
vt 0.397832 0.525693
vt 0.401056 0.529294
vt 0.404860 0.530071
vt 0.258398 0.404860
vt 0.257832 0.400957
vt 0.262095 0.400814
vt 0.254939 0.404860
vt 0.255141 0.401056
vt 0.260871 0.397832
vt 0.266457 0.397385
vt 0.325458 0.400814
vt 0.322291 0.404860
vt 0.323731 0.397385
vt 0.321263 0.400957
vt 0.317191 0.404860
vt 0.317719 0.398780
vt 0.317394 0.401056
vt 0.323731 0.470905
vt 0.318568 0.396263
vt 0.320242 0.397832
vt 0.312400 0.404860
vt 0.310266 0.400814
vt 0.313910 0.400957
vt 0.313094 0.397385
vt 0.315620 0.397832
vt 0.733543 0.602615
vt 0.741224 0.599186
vt 0.736476 0.602615
vt 0.263524 0.397385
vt 0.258776 0.400814
vt 0.736476 0.397385
vt 0.741224 0.400814
vt 0.263524 0.602615
vt 0.258776 0.599186
vt 0.255531 0.595140
vt 0.253179 0.404860
vt 0.595140 0.530071
vt 0.266457 0.602615
vt 0.746821 0.404860
vt 0.595140 0.469929
vt 0.397385 0.478309
vt 0.397385 0.521691
s 1
usemtl Material.001
f 20/1/1 134/2/2 98/3/3
f 115/4/4 96/5/5 136/6/6
f 41/7/7 135/8/8 59/9/9
f 79/10/10 40/11/11 2/12/12
f 3/13/13 58/14/14 22/15/15
f 1/7/16 7/16/17 6/17/18
f 4/18/19 8/19/20 7/16/17
f 6/17/18 19/20/21 16/21/22
f 7/22/17 9/23/23 19/24/21
f 10/25/24 12/26/25 2/12/12
f 11/27/26 13/28/27 10/25/24
f 13/28/27 5/29/28 12/26/25
f 13/28/27 9/23/23 8/30/20
f 15/31/29 17/32/30 3/13/13
f 16/33/22 18/34/31 15/31/29
f 18/34/31 11/27/26 17/32/30
f 18/34/31 9/23/23 14/35/32
f 20/1/1 26/36/33 25/37/34
f 23/38/35 27/39/36 26/36/33
f 25/37/34 38/40/37 35/41/38
f 26/42/33 28/43/39 38/44/37
f 29/45/40 31/46/41 21/9/42
f 30/47/43 32/48/44 29/45/40
f 32/48/44 24/49/45 31/46/41
f 33/50/46 27/51/36 32/48/44
f 22/52/15 37/53/47 36/54/48
f 34/55/49 38/56/37 37/53/47
f 36/54/48 33/57/46 30/58/43
f 37/59/47 28/43/39 33/50/46
f 42/60/50 44/61/51 39/62/52
f 43/63/53 45/64/54 42/60/50
f 45/64/54 54/65/55 44/61/51
f 45/64/54 47/66/56 57/67/57
f 48/68/58 50/69/59 40/11/11
f 49/70/60 51/71/61 48/68/58
f 51/71/61 43/63/53 50/69/59
f 51/71/61 47/66/56 46/72/62
f 41/7/7 56/16/63 55/18/64
f 53/17/65 57/20/57 56/16/63
f 55/18/64 52/19/66 49/73/60
f 56/74/63 47/66/56 52/75/66
f 58/76/14 64/77/67 63/78/68
f 61/79/69 65/80/70 64/77/67
f 63/78/68 76/81/71 73/82/72
f 64/59/67 66/43/73 76/44/71
f 67/46/74 69/45/75 59/9/9
f 68/49/76 70/48/77 67/46/74
f 70/48/77 62/47/78 69/45/75
f 71/51/79 65/50/70 70/48/77
f 60/83/80 75/84/81 74/85/82
f 72/86/83 76/87/71 75/84/81
f 74/85/82 71/88/79 68/89/76
f 75/42/81 66/43/73 71/51/79
f 80/90/84 82/91/85 77/92/86
f 81/93/87 83/94/88 80/90/84
f 83/94/88 92/95/89 82/91/85
f 84/96/90 95/97/91 83/94/88
f 78/98/92 89/99/93 88/100/94
f 86/101/95 90/102/96 89/99/93
f 88/100/94 84/103/90 81/104/87
f 89/105/93 85/106/97 84/96/90
f 79/10/10 94/107/98 93/108/99
f 91/109/100 95/110/91 94/107/98
f 93/108/99 90/111/96 87/112/101
f 94/113/98 85/106/97 90/114/96
f 99/115/102 101/116/103 96/5/5
f 100/117/104 102/118/105 99/115/102
f 102/118/105 111/119/106 101/116/103
f 102/118/105 104/120/107 114/121/108
f 97/8/109 108/122/110 107/123/111
f 105/124/112 109/125/113 108/122/110
f 107/123/111 103/126/114 100/127/104
f 108/128/110 104/120/107 103/129/114
f 110/130/115 112/131/116 98/3/3
f 111/119/106 113/132/117 110/130/115
f 113/132/117 106/133/118 112/131/116
f 113/132/117 104/120/107 109/134/113
f 115/135/4 121/136/119 120/137/120
f 118/138/121 122/139/122 121/136/119
f 120/137/120 133/140/123 130/141/124
f 121/105/119 123/106/125 133/114/123
f 124/91/126 126/90/127 116/92/128
f 125/95/129 127/94/130 124/91/126
f 127/94/130 119/93/131 126/90/127
f 128/97/132 122/96/122 127/94/130
f 117/142/133 132/143/134 131/144/135
f 129/145/136 133/146/123 132/143/134
f 131/144/135 128/147/132 125/148/129
f 132/113/134 123/106/125 128/97/132
f 137/149/137 139/150/138 134/2/2
f 138/151/139 140/152/140 137/149/137
f 140/152/140 149/153/141 139/150/138
f 140/152/140 142/154/142 152/155/143
f 135/8/8 146/122/144 145/124/145
f 143/123/146 147/126/147 146/122/144
f 145/124/145 141/125/148 138/156/139
f 146/157/144 142/154/142 141/158/148
f 148/159/149 150/160/150 136/6/6
f 149/153/141 151/161/151 148/159/149
f 151/161/151 144/162/152 150/160/150
f 151/161/151 142/154/142 147/163/147
f 134/2/2 110/130/115 98/3/3
f 139/150/138 111/119/106 110/130/115
f 149/153/141 101/116/103 111/119/106
f 148/159/149 96/5/5 101/116/103
f 98/3/3 23/38/35 20/1/1
f 112/131/116 24/164/45 23/38/35
f 106/156/118 31/46/41 24/49/45
f 105/124/112 21/9/42 31/46/41
f 3/13/13 36/165/48 15/31/29
f 15/31/29 30/166/43 16/33/22
f 16/21/22 29/45/40 6/17/18
f 6/17/18 21/9/42 1/7/16
f 116/92/128 143/123/146 135/8/8
f 126/90/127 144/127/152 143/123/146
f 119/167/131 150/160/150 144/162/152
f 118/168/121 136/6/6 150/160/150
f 59/9/9 53/17/65 41/7/7
f 69/45/75 54/21/55 53/17/65
f 62/169/78 44/61/51 54/65/55
f 61/170/69 39/62/52 44/61/51
f 77/92/86 107/123/111 80/90/84
f 80/90/84 100/127/104 81/93/87
f 81/171/87 99/115/102 88/172/94
f 88/172/94 96/5/5 78/173/92
f 40/11/11 131/144/135 48/68/58
f 48/68/58 125/148/129 49/70/60
f 49/73/60 124/91/126 55/18/64
f 55/18/64 116/92/128 41/7/7
f 40/11/11 10/25/24 2/12/12
f 50/69/59 11/27/26 10/25/24
f 43/63/53 17/32/30 11/27/26
f 42/60/50 3/13/13 17/32/30
f 134/2/2 74/85/82 137/149/137
f 137/149/137 68/89/76 138/151/139
f 138/156/139 67/46/74 145/124/145
f 145/124/145 59/9/9 135/8/8
f 79/10/10 129/145/136 117/142/133
f 93/108/99 130/174/124 129/145/136
f 87/175/101 120/137/120 130/141/124
f 86/101/95 115/135/4 120/137/120
f 2/12/12 91/109/100 79/10/10
f 12/26/25 92/176/89 91/109/100
f 5/73/28 82/91/85 92/95/89
f 4/18/19 77/92/86 82/91/85
f 20/1/1 72/86/83 60/83/80
f 25/37/34 73/177/72 72/86/83
f 35/178/38 63/78/68 73/82/72
f 34/55/49 58/76/14 63/78/68
f 97/8/109 1/7/16 21/9/42
f 20/1/1 60/83/80 134/2/2
f 115/4/4 78/173/92 96/5/5
f 41/7/7 116/92/128 135/8/8
f 79/10/10 117/142/133 40/11/11
f 3/13/13 39/62/52 58/14/14
f 1/7/16 4/18/19 7/16/17
f 4/18/19 5/73/28 8/19/20
f 6/17/18 7/16/17 19/20/21
f 7/22/17 8/30/20 9/23/23
f 10/25/24 13/28/27 12/26/25
f 11/27/26 14/35/32 13/28/27
f 13/28/27 8/30/20 5/29/28
f 13/28/27 14/35/32 9/23/23
f 15/31/29 18/34/31 17/32/30
f 16/33/22 19/24/21 18/34/31
f 18/34/31 14/35/32 11/27/26
f 18/34/31 19/24/21 9/23/23
f 20/1/1 23/38/35 26/36/33
f 23/38/35 24/164/45 27/39/36
f 25/37/34 26/36/33 38/40/37
f 26/42/33 27/51/36 28/43/39
f 29/45/40 32/48/44 31/46/41
f 30/47/43 33/50/46 32/48/44
f 32/48/44 27/51/36 24/49/45
f 33/50/46 28/43/39 27/51/36
f 22/52/15 34/55/49 37/53/47
f 34/55/49 35/178/38 38/56/37
f 36/54/48 37/53/47 33/57/46
f 37/59/47 38/44/37 28/43/39
f 42/60/50 45/64/54 44/61/51
f 43/63/53 46/72/62 45/64/54
f 45/64/54 57/67/57 54/65/55
f 45/64/54 46/72/62 47/66/56
f 48/68/58 51/71/61 50/69/59
f 49/70/60 52/75/66 51/71/61
f 51/71/61 46/72/62 43/63/53
f 51/71/61 52/75/66 47/66/56
f 41/7/7 53/17/65 56/16/63
f 53/17/65 54/21/55 57/20/57
f 55/18/64 56/16/63 52/19/66
f 56/74/63 57/67/57 47/66/56
f 58/76/14 61/79/69 64/77/67
f 61/79/69 62/179/78 65/80/70
f 63/78/68 64/77/67 76/81/71
f 64/59/67 65/50/70 66/43/73
f 67/46/74 70/48/77 69/45/75
f 68/49/76 71/51/79 70/48/77
f 70/48/77 65/50/70 62/47/78
f 71/51/79 66/43/73 65/50/70
f 60/83/80 72/86/83 75/84/81
f 72/86/83 73/177/72 76/87/71
f 74/85/82 75/84/81 71/88/79
f 75/42/81 76/44/71 66/43/73
f 80/90/84 83/94/88 82/91/85
f 81/93/87 84/96/90 83/94/88
f 83/94/88 95/97/91 92/95/89
f 84/96/90 85/106/97 95/97/91
f 78/98/92 86/101/95 89/99/93
f 86/101/95 87/175/101 90/102/96
f 88/100/94 89/99/93 84/103/90
f 89/105/93 90/114/96 85/106/97
f 79/10/10 91/109/100 94/107/98
f 91/109/100 92/176/89 95/110/91
f 93/108/99 94/107/98 90/111/96
f 94/113/98 95/97/91 85/106/97
f 99/115/102 102/118/105 101/116/103
f 100/117/104 103/129/114 102/118/105
f 102/118/105 114/121/108 111/119/106
f 102/118/105 103/129/114 104/120/107
f 97/8/109 105/124/112 108/122/110
f 105/124/112 106/156/118 109/125/113
f 107/123/111 108/122/110 103/126/114
f 108/128/110 109/134/113 104/120/107
f 110/130/115 113/132/117 112/131/116
f 111/119/106 114/121/108 113/132/117
f 113/132/117 109/134/113 106/133/118
f 113/132/117 114/121/108 104/120/107
f 115/135/4 118/138/121 121/136/119
f 118/138/121 119/180/131 122/139/122
f 120/137/120 121/136/119 133/140/123
f 121/105/119 122/96/122 123/106/125
f 124/91/126 127/94/130 126/90/127
f 125/95/129 128/97/132 127/94/130
f 127/94/130 122/96/122 119/93/131
f 128/97/132 123/106/125 122/96/122
f 117/142/133 129/145/136 132/143/134
f 129/145/136 130/174/124 133/146/123
f 131/144/135 132/143/134 128/147/132
f 132/113/134 133/114/123 123/106/125
f 137/149/137 140/152/140 139/150/138
f 138/151/139 141/158/148 140/152/140
f 140/152/140 152/155/143 149/153/141
f 140/152/140 141/158/148 142/154/142
f 135/8/8 143/123/146 146/122/144
f 143/123/146 144/127/152 147/126/147
f 145/124/145 146/122/144 141/125/148
f 146/157/144 147/163/147 142/154/142
f 148/159/149 151/161/151 150/160/150
f 149/153/141 152/155/143 151/161/151
f 151/161/151 147/163/147 144/162/152
f 151/161/151 152/155/143 142/154/142
f 134/2/2 139/150/138 110/130/115
f 139/150/138 149/153/141 111/119/106
f 149/153/141 148/159/149 101/116/103
f 148/159/149 136/6/6 96/5/5
f 98/3/3 112/131/116 23/38/35
f 112/131/116 106/133/118 24/164/45
f 106/156/118 105/124/112 31/46/41
f 105/124/112 97/8/109 21/9/42
f 3/13/13 22/15/15 36/165/48
f 15/31/29 36/165/48 30/166/43
f 16/21/22 30/47/43 29/45/40
f 6/17/18 29/45/40 21/9/42
f 116/92/128 126/90/127 143/123/146
f 126/90/127 119/93/131 144/127/152
f 119/167/131 118/168/121 150/160/150
f 118/168/121 115/4/4 136/6/6
f 59/9/9 69/45/75 53/17/65
f 69/45/75 62/47/78 54/21/55
f 62/169/78 61/170/69 44/61/51
f 61/170/69 58/14/14 39/62/52
f 77/92/86 97/8/109 107/123/111
f 80/90/84 107/123/111 100/127/104
f 81/171/87 100/117/104 99/115/102
f 88/172/94 99/115/102 96/5/5
f 40/11/11 117/142/133 131/144/135
f 48/68/58 131/144/135 125/148/129
f 49/73/60 125/95/129 124/91/126
f 55/18/64 124/91/126 116/92/128
f 40/11/11 50/69/59 10/25/24
f 50/69/59 43/63/53 11/27/26
f 43/63/53 42/60/50 17/32/30
f 42/60/50 39/62/52 3/13/13
f 134/2/2 60/83/80 74/85/82
f 137/149/137 74/85/82 68/89/76
f 138/156/139 68/49/76 67/46/74
f 145/124/145 67/46/74 59/9/9
f 79/10/10 93/108/99 129/145/136
f 93/108/99 87/112/101 130/174/124
f 87/175/101 86/101/95 120/137/120
f 86/101/95 78/98/92 115/135/4
f 2/12/12 12/26/25 91/109/100
f 12/26/25 5/29/28 92/176/89
f 5/73/28 4/18/19 82/91/85
f 4/18/19 1/7/16 77/92/86
f 20/1/1 25/37/34 72/86/83
f 25/37/34 35/41/38 73/177/72
f 35/178/38 34/55/49 63/78/68
f 34/55/49 22/52/15 58/76/14
f 97/8/109 77/92/86 1/7/16
