# Blender 4.4.1
# www.blender.org
mtllib sky.mtl
o Sphere
v 0.000000 14.350597 -46.194000
v 0.000000 -0.000015 -50.000000
v 0.000000 -14.350626 -46.194000
v 7.322350 34.645500 -17.677660
v 13.529900 26.516504 -32.664062
v 17.677650 14.350600 -42.677650
v 19.134150 -0.000012 -46.194000
v 17.677650 -14.350623 -42.677650
v 13.529900 34.645500 -13.529912
v 25.000000 26.516508 -25.000008
v 32.664101 14.350602 -32.664047
v 35.355350 -0.000011 -35.355350
v 32.664101 -14.350622 -32.664047
v 17.677650 34.645500 -7.322360
v 32.664047 26.516508 -13.529908
v 42.677650 14.350608 -17.677658
v 46.194000 -0.000004 -19.134150
v 42.677650 -14.350617 -17.677643
v 19.134150 34.645500 -0.000012
v 35.355350 26.516514 -0.000009
v 46.194000 14.350613 -0.000004
v 50.000000 0.000000 0.000000
v 46.194000 -14.350613 0.000004
v 17.677650 34.645500 7.322340
v 32.664047 26.516520 13.529891
v 42.677650 14.350617 17.677692
v 46.193951 0.000004 19.134199
v 42.677650 -14.350608 17.677708
v 13.529900 34.645500 13.529887
v 25.000000 26.516520 24.999992
v 32.664047 14.350622 32.664101
v 35.355350 0.000011 35.355350
v 32.664047 -14.350602 32.664101
v 7.322350 34.645500 17.677641
v 13.529900 26.516521 32.664032
v 17.677650 14.350623 42.677650
v 19.134150 0.000012 46.194000
v 17.677650 -14.350600 42.677650
v 0.000000 34.645500 19.134140
v 0.000000 26.516521 35.355335
v 0.000000 14.350626 46.193951
v 0.000000 0.000015 50.000000
v 0.000000 -14.350597 46.193951
v 0.000000 37.500000 -0.000013
v -7.322350 34.645500 17.677641
v -13.529900 26.516521 32.664032
v -17.677700 14.350623 42.677650
v -19.134199 0.000012 46.193951
v -17.677700 -14.350600 42.677650
v -13.529900 34.645500 13.529887
v -25.000000 26.516520 24.999992
v -32.664101 14.350622 32.664047
v -35.355350 0.000011 35.355301
v -32.664101 -14.350602 32.664047
v -17.677650 34.645500 7.322290
v -32.664047 26.516520 13.529891
v -42.677650 14.350617 17.677643
v -46.194000 0.000004 19.134150
v -42.677650 -14.350608 17.677658
v -19.134150 34.645500 -0.000012
v -35.355350 26.516514 -0.000009
v -46.193951 14.350613 -0.000004
v -50.000000 -0.000000 -0.000050
v -46.193951 -14.350613 0.000004
v -17.677650 34.645500 -7.322360
v -32.664047 26.516508 -13.529908
v -42.677650 14.350608 -17.677708
v -46.193951 -0.000004 -19.134199
v -42.677650 -14.350617 -17.677692
v -13.529900 34.645500 -13.529912
v -25.000000 26.516508 -25.000008
v -32.664047 14.350602 -32.664101
v -35.355301 -0.000011 -35.355350
v -32.664047 -14.350622 -32.664101
v -7.322300 34.645500 -17.677710
v -13.529900 26.516504 -32.664062
v -17.677650 14.350600 -42.677650
v -19.134150 -0.000012 -46.194000
v -17.677650 -14.350623 -42.677650
v 0.000000 34.645500 -19.134159
v 0.000000 26.516504 -35.355366
vn -0.3699 0.2564 0.8930
vn -0.0000 -0.0000 1.0000
vn -0.0000 0.2564 0.9666
vn -0.3394 -0.4621 0.8193
vn -0.0000 -0.7826 0.6226
vn -0.0000 -0.4621 0.8868
vn -0.0000 -0.9477 0.3192
vn -0.1222 -0.9477 0.2949
vn -0.0000 -1.0000 -0.0000
vn -0.3827 -0.0000 0.9239
vn -0.2257 -0.9477 0.2257
vn -0.7071 -0.0000 0.7071
vn -0.4402 -0.7826 0.4402
vn -0.2383 -0.7826 0.5752
vn -0.6271 -0.4621 0.6271
vn -0.8193 -0.4621 0.3394
vn -0.5752 -0.7826 0.2382
vn -0.8930 0.2564 0.3699
vn -0.6835 0.2564 0.6835
vn -0.2949 -0.9477 0.1222
vn -1.0000 -0.0000 -0.0000
vn -0.9239 -0.0000 0.3827
vn -0.8868 -0.4621 -0.0000
vn -0.3192 -0.9477 -0.0000
vn -0.6226 -0.7826 -0.0000
vn -0.9666 0.2564 -0.0000
vn -0.9239 -0.0000 -0.3827
vn -0.5752 -0.7826 -0.2383
vn -0.2949 -0.9477 -0.1222
vn -0.6271 -0.4621 -0.6271
vn -0.8193 -0.4621 -0.3394
vn -0.4402 -0.7826 -0.4402
vn -0.6835 0.2564 -0.6835
vn -0.8930 0.2564 -0.3699
vn -0.2257 -0.9477 -0.2257
vn -0.3827 -0.0000 -0.9239
vn -0.7071 -0.0000 -0.7071
vn -0.2382 -0.7826 -0.5752
vn -0.3699 0.2564 -0.8930
vn -0.3394 -0.4621 -0.8193
vn -0.1222 -0.9477 -0.2949
vn -0.0000 0.2564 -0.9666
vn -0.0000 -0.4621 -0.8868
vn -0.0000 -0.9477 -0.3192
vn -0.0000 -0.7826 -0.6226
vn 0.3394 -0.4621 -0.8193
vn 0.1222 -0.9477 -0.2949
vn -0.0000 -0.0000 -1.0000
vn 0.2383 -0.7826 -0.5752
vn 0.3699 0.2564 -0.8930
vn 0.3827 -0.0000 -0.9239
vn 0.6271 -0.4621 -0.6271
vn 0.4402 -0.7826 -0.4402
vn 0.6835 0.2564 -0.6835
vn 0.2257 -0.9477 -0.2257
vn 0.5752 -0.7826 -0.2382
vn 0.8930 0.2564 -0.3699
vn 0.7071 -0.0000 -0.7071
vn 0.8193 -0.4621 -0.3394
vn 0.2949 -0.9477 -0.1222
vn 0.9666 0.2564 -0.0000
vn 0.9239 -0.0000 -0.3827
vn 0.8868 -0.4621 -0.0000
vn 0.3192 -0.9477 -0.0000
vn 0.2949 -0.9477 0.1222
vn 1.0000 -0.0000 -0.0000
vn 0.8193 -0.4621 0.3394
vn 0.5752 -0.7826 0.2383
vn 0.6226 -0.7826 -0.0000
vn 0.8930 0.2564 0.3699
vn 0.9239 -0.0000 0.3827
vn 0.6271 -0.4621 0.6271
vn 0.4402 -0.7826 0.4402
vn 0.6835 0.2564 0.6835
vn 0.2257 -0.9477 0.2257
vn 0.3699 0.2564 0.8930
vn 0.7071 -0.0000 0.7071
vn 0.3394 -0.4621 0.8193
vn 0.1222 -0.9477 0.2949
vn 0.2382 -0.7826 0.5752
vn 0.3827 -0.0000 0.9239
vt 0.687500 0.004142
vt 0.750000 0.202485
vt 0.750000 0.004142
vt 0.687500 0.400828
vt 0.750000 0.599172
vt 0.750000 0.400828
vt 0.750000 0.797515
vt 0.687500 0.797515
vt 0.718750 0.995858
vt 0.687500 0.202485
vt 0.625000 0.797515
vt 0.656250 0.995858
vt 0.625000 0.202485
vt 0.625000 0.599172
vt 0.687500 0.599172
vt 0.625000 0.400828
vt 0.562500 0.400828
vt 0.562500 0.599172
vt 0.562500 0.004142
vt 0.625000 0.004142
vt 0.562500 0.797515
vt 0.593750 0.995858
vt 0.500000 0.202485
vt 0.562500 0.202485
vt 0.500000 0.400828
vt 0.500000 0.797515
vt 0.531250 0.995858
vt 0.500000 0.599172
vt 0.500000 0.004142
vt 0.437500 0.202485
vt 0.437500 0.599172
vt 0.437500 0.797515
vt 0.468750 0.995858
vt 0.375000 0.400829
vt 0.437500 0.400828
vt 0.375000 0.599172
vt 0.375000 0.004142
vt 0.437500 0.004142
vt 0.375000 0.797515
vt 0.406250 0.995858
vt 0.312500 0.202485
vt 0.375000 0.202485
vt 0.312500 0.599172
vt 0.312500 0.004142
vt 0.312500 0.400829
vt 0.312500 0.797515
vt 0.343750 0.995858
vt 0.250000 0.004142
vt 0.250000 0.400829
vt 0.250000 0.797515
vt 0.281250 0.995858
vt 0.250000 0.599172
vt 0.187500 0.400829
vt 0.187500 0.797515
vt 0.218750 0.995858
vt 0.250000 0.202485
vt 0.187500 0.599172
vt 0.187500 0.004142
vt 0.187500 0.202485
vt 0.125000 0.400829
vt 0.125000 0.599172
vt 0.125000 0.004142
vt 0.125000 0.797515
vt 0.156250 0.995858
vt 0.062500 0.599172
vt 0.062500 0.004142
vt 0.125000 0.202485
vt 0.062500 0.400829
vt 0.062500 0.797515
vt 0.093750 0.995858
vt 0.000000 0.004142
vt 0.062500 0.202485
vt 0.000000 0.400829
vt 0.000000 0.797515
vt 0.031250 0.995858
vt 1.000000 0.797515
vt 0.937500 0.797515
vt 0.968750 0.995858
vt 1.000000 0.202485
vt 0.937500 0.400829
vt 1.000000 0.400829
vt 0.937500 0.599172
vt 1.000000 0.599172
vt 0.937500 0.004142
vt 1.000000 0.004142
vt 0.937500 0.202485
vt 0.875000 0.400829
vt 0.875000 0.599172
vt 0.875000 0.004142
vt 0.875000 0.797515
vt 0.906250 0.995858
vt 0.812500 0.004142
vt 0.875000 0.202485
vt 0.812500 0.400829
vt 0.812500 0.797515
vt 0.843750 0.995858
vt 0.812500 0.599172
vt 0.812500 0.202485
vt 0.781250 0.995858
vt 0.000000 0.202485
vt 0.000000 0.599172
s 1
usemtl Material.002
f 8/1/1 2/2/2 3/3/3
f 6/4/4 81/5/5 1/6/6
f 80/7/7 4/8/8 44/9/9
f 7/10/10 1/6/6 2/2/2
f 81/5/5 4/8/8 80/7/7
f 4/8/8 9/11/11 44/12/9
f 12/13/12 6/4/4 7/10/10
f 10/14/13 4/8/8 5/15/14
f 8/1/1 12/13/12 7/10/10
f 11/16/15 5/15/14 6/4/4
f 12/13/12 16/17/16 11/16/15
f 15/18/17 9/11/11 10/14/13
f 18/19/18 12/13/12 13/20/19
f 16/17/16 10/14/13 11/16/15
f 9/11/11 14/21/20 44/22/9
f 18/19/18 22/23/21 17/24/22
f 21/25/23 15/18/17 16/17/16
f 14/21/20 19/26/24 44/27/9
f 22/23/21 16/17/16 17/24/22
f 20/28/25 14/21/20 15/18/17
f 23/29/26 27/30/27 22/23/21
f 21/25/23 25/31/28 20/28/25
f 19/26/24 24/32/29 44/33/9
f 27/30/27 21/25/23 22/23/21
f 25/31/28 19/26/24 20/28/25
f 27/30/27 31/34/30 26/35/31
f 30/36/32 24/32/29 25/31/28
f 33/37/33 27/30/27 28/38/34
f 31/34/30 25/31/28 26/35/31
f 24/32/29 29/39/35 44/40/9
f 37/41/36 31/34/30 32/42/37
f 35/43/38 29/39/35 30/36/32
f 38/44/39 32/42/37 33/37/33
f 36/45/40 30/36/32 31/34/30
f 29/39/35 34/46/41 44/47/9
f 43/48/42 37/41/36 38/44/39
f 41/49/43 35/43/38 36/45/40
f 34/46/41 39/50/44 44/51/9
f 37/41/36 41/49/43 36/45/40
f 40/52/45 34/46/41 35/43/38
f 47/53/46 40/52/45 41/49/43
f 39/50/44 45/54/47 44/55/9
f 42/56/48 47/53/46 41/49/43
f 46/57/49 39/50/44 40/52/45
f 49/58/50 42/56/48 43/48/42
f 48/59/51 52/60/52 47/53/46
f 51/61/53 45/54/47 46/57/49
f 54/62/54 48/59/51 49/58/50
f 52/60/52 46/57/49 47/53/46
f 45/54/47 50/63/55 44/64/9
f 56/65/56 50/63/55 51/61/53
f 59/66/57 53/67/58 54/62/54
f 57/68/59 51/61/53 52/60/52
f 50/63/55 55/69/60 44/70/9
f 53/67/58 57/68/59 52/60/52
f 64/71/61 58/72/62 59/66/57
f 62/73/63 56/65/56 57/68/59
f 55/69/60 60/74/64 44/75/9
f 58/72/62 62/73/63 57/68/59
f 56/65/56 60/74/64 55/69/60
f 60/76/64 65/77/65 44/78/9
f 63/79/66 67/80/67 62/81/63
f 66/82/68 60/76/64 61/83/69
f 69/84/70 63/79/66 64/85/61
f 67/80/67 61/83/69 62/81/63
f 68/86/71 72/87/72 67/80/67
f 71/88/73 65/77/65 66/82/68
f 74/89/74 68/86/71 69/84/70
f 72/87/72 66/82/68 67/80/67
f 65/77/65 70/90/75 44/91/9
f 79/92/76 73/93/77 74/89/74
f 77/94/78 71/88/73 72/87/72
f 70/90/75 75/95/79 44/96/9
f 73/93/77 77/94/78 72/87/72
f 76/97/80 70/90/75 71/88/73
f 3/3/3 78/98/81 79/92/76
f 1/6/6 76/97/80 77/94/78
f 75/95/79 80/7/7 44/99/9
f 2/2/2 77/94/78 78/98/81
f 76/97/80 80/7/7 75/95/79
f 8/1/1 7/10/10 2/2/2
f 6/4/4 5/15/14 81/5/5
f 7/10/10 6/4/4 1/6/6
f 81/5/5 5/15/14 4/8/8
f 12/13/12 11/16/15 6/4/4
f 10/14/13 9/11/11 4/8/8
f 8/1/1 13/20/19 12/13/12
f 11/16/15 10/14/13 5/15/14
f 12/13/12 17/24/22 16/17/16
f 15/18/17 14/21/20 9/11/11
f 18/19/18 17/24/22 12/13/12
f 16/17/16 15/18/17 10/14/13
f 18/19/18 23/29/26 22/23/21
f 21/25/23 20/28/25 15/18/17
f 22/23/21 21/25/23 16/17/16
f 20/28/25 19/26/24 14/21/20
f 23/29/26 28/38/34 27/30/27
f 21/25/23 26/35/31 25/31/28
f 27/30/27 26/35/31 21/25/23
f 25/31/28 24/32/29 19/26/24
f 27/30/27 32/42/37 31/34/30
f 30/36/32 29/39/35 24/32/29
f 33/37/33 32/42/37 27/30/27
f 31/34/30 30/36/32 25/31/28
f 37/41/36 36/45/40 31/34/30
f 35/43/38 34/46/41 29/39/35
f 38/44/39 37/41/36 32/42/37
f 36/45/40 35/43/38 30/36/32
f 43/48/42 42/56/48 37/41/36
f 41/49/43 40/52/45 35/43/38
f 37/41/36 42/56/48 41/49/43
f 40/52/45 39/50/44 34/46/41
f 47/53/46 46/57/49 40/52/45
f 42/56/48 48/59/51 47/53/46
f 46/57/49 45/54/47 39/50/44
f 49/58/50 48/59/51 42/56/48
f 48/59/51 53/67/58 52/60/52
f 51/61/53 50/63/55 45/54/47
f 54/62/54 53/67/58 48/59/51
f 52/60/52 51/61/53 46/57/49
f 56/65/56 55/69/60 50/63/55
f 59/66/57 58/72/62 53/67/58
f 57/68/59 56/65/56 51/61/53
f 53/67/58 58/72/62 57/68/59
f 64/71/61 63/100/66 58/72/62
f 62/73/63 61/101/69 56/65/56
f 58/72/62 63/100/66 62/73/63
f 56/65/56 61/101/69 60/74/64
f 63/79/66 68/86/71 67/80/67
f 66/82/68 65/77/65 60/76/64
f 69/84/70 68/86/71 63/79/66
f 67/80/67 66/82/68 61/83/69
f 68/86/71 73/93/77 72/87/72
f 71/88/73 70/90/75 65/77/65
f 74/89/74 73/93/77 68/86/71
f 72/87/72 71/88/73 66/82/68
f 79/92/76 78/98/81 73/93/77
f 77/94/78 76/97/80 71/88/73
f 73/93/77 78/98/81 77/94/78
f 76/97/80 75/95/79 70/90/75
f 3/3/3 2/2/2 78/98/81
f 1/6/6 81/5/5 76/97/80
f 2/2/2 1/6/6 77/94/78
f 76/97/80 81/5/5 80/7/7
