# Blender 4.4.1
# www.blender.org
mtllib cube.mtl
o Cube
v 0.183124 0.183124 -0.200000
v 0.183124 0.200000 -0.183124
v 0.200000 0.183124 -0.183124
v 0.183124 0.191551 -0.197745
v 0.191551 0.183124 -0.197745
v 0.191194 0.191194 -0.195555
v 0.191551 0.197745 -0.183124
v 0.183124 0.197745 -0.191551
v 0.191194 0.195555 -0.191194
v 0.197745 0.183124 -0.191551
v 0.197745 0.191551 -0.183124
v 0.195555 0.191194 -0.191194
v 0.183124 -0.200000 -0.183124
v 0.183124 -0.183124 -0.200000
v 0.200000 -0.183124 -0.183124
v 0.183124 -0.197745 -0.191551
v 0.191551 -0.197745 -0.183124
v 0.191194 -0.195555 -0.191194
v 0.191551 -0.183124 -0.197745
v 0.183124 -0.191551 -0.197745
v 0.191194 -0.191194 -0.195555
v 0.197745 -0.191551 -0.183124
v 0.197745 -0.183124 -0.191551
v 0.195555 -0.191194 -0.191194
v 0.200000 0.183124 0.183124
v 0.183124 0.200000 0.183124
v 0.183124 0.183124 0.200000
v 0.197745 0.191551 0.183124
v 0.197745 0.183124 0.191551
v 0.195555 0.191194 0.191194
v 0.183124 0.197745 0.191551
v 0.191551 0.197745 0.183124
v 0.191194 0.195555 0.191194
v 0.191551 0.183124 0.197745
v 0.183124 0.191551 0.197745
v 0.191194 0.191194 0.195555
v 0.200000 -0.183124 0.183124
v 0.183124 -0.183124 0.200000
v 0.183124 -0.200000 0.183124
v 0.197745 -0.183124 0.191551
v 0.197745 -0.191551 0.183124
v 0.195555 -0.191194 0.191194
v 0.183124 -0.191551 0.197745
v 0.191551 -0.183124 0.197745
v 0.191194 -0.191194 0.195555
v 0.191551 -0.197745 0.183124
v 0.183124 -0.197745 0.191551
v 0.191194 -0.195555 0.191194
v -0.183124 0.183124 -0.200000
v -0.200000 0.183124 -0.183124
v -0.183124 0.200000 -0.183124
v -0.191551 0.183124 -0.197745
v -0.183124 0.191551 -0.197745
v -0.191194 0.191194 -0.195555
v -0.197745 0.191551 -0.183124
v -0.197745 0.183124 -0.191551
v -0.195555 0.191194 -0.191194
v -0.183124 0.197745 -0.191551
v -0.191551 0.197745 -0.183124
v -0.191194 0.195555 -0.191194
v -0.200000 -0.183124 -0.183124
v -0.183124 -0.183124 -0.200000
v -0.183124 -0.200000 -0.183124
v -0.197745 -0.183124 -0.191551
v -0.197745 -0.191551 -0.183124
v -0.195555 -0.191194 -0.191194
v -0.183124 -0.191551 -0.197745
v -0.191551 -0.183124 -0.197745
v -0.191194 -0.191194 -0.195555
v -0.191551 -0.197745 -0.183124
v -0.183124 -0.197745 -0.191551
v -0.191194 -0.195555 -0.191194
v -0.200000 0.183124 0.183124
v -0.183124 0.183124 0.200000
v -0.183124 0.200000 0.183124
v -0.197745 0.183124 0.191551
v -0.197745 0.191551 0.183124
v -0.195555 0.191194 0.191194
v -0.183124 0.191551 0.197745
v -0.191551 0.183124 0.197745
v -0.191194 0.191194 0.195555
v -0.191551 0.197745 0.183124
v -0.183124 0.197745 0.191551
v -0.191194 0.195555 0.191194
v -0.183124 -0.200000 0.183124
v -0.183124 -0.183124 0.200000
v -0.200000 -0.183124 0.183124
v -0.183124 -0.197745 0.191551
v -0.191551 -0.197745 0.183124
v -0.191194 -0.195555 0.191194
v -0.191551 -0.183124 0.197745
v -0.183124 -0.191551 0.197745
v -0.191194 -0.191194 0.195555
v -0.197745 -0.191551 0.183124
v -0.197745 -0.183124 0.191551
v -0.195555 -0.191194 0.191194
vn 0.1280 -0.9835 -0.1280
vn -0.1280 -0.9835 0.1280
vn -0.1280 -0.9835 -0.1280
vn -0.9835 0.1280 0.1280
vn -0.9835 -0.1280 -0.1280
vn -0.9835 -0.1280 0.1280
vn 0.1280 0.1280 0.9835
vn -0.1280 -0.1280 0.9835
vn 0.1280 -0.1280 0.9835
vn -0.1280 0.9835 -0.1280
vn 0.1280 0.9835 0.1280
vn 0.1280 0.9835 -0.1280
vn 0.9835 0.1280 -0.1280
vn 0.9835 -0.1280 0.1280
vn 0.9835 -0.1280 -0.1280
vn 0.1216 0.4916 -0.8623
vn 0.4916 0.1216 -0.8623
vn 0.1280 0.1280 -0.9835
vn 0.4489 0.7727 -0.4489
vn 0.4489 0.4489 -0.7727
vn 0.4916 0.8623 -0.1216
vn 0.1216 0.8623 -0.4916
vn 0.8623 0.4916 -0.1216
vn 0.8623 0.1216 -0.4916
vn 0.7727 0.4488 -0.4489
vn 0.1216 -0.8623 -0.4916
vn 0.4916 -0.8623 -0.1216
vn 0.1216 -0.4916 -0.8623
vn 0.4489 -0.7727 -0.4489
vn 0.4916 -0.1216 -0.8623
vn 0.1280 -0.1280 -0.9835
vn 0.8623 -0.1216 -0.4916
vn 0.4489 -0.4488 -0.7727
vn 0.8623 -0.4916 -0.1216
vn 0.7727 -0.4489 -0.4489
vn 0.8623 0.4916 0.1216
vn 0.8623 0.1216 0.4916
vn 0.9835 0.1280 0.1280
vn 0.4489 0.7727 0.4489
vn 0.7727 0.4489 0.4489
vn 0.1216 0.8623 0.4916
vn 0.4916 0.8623 0.1216
vn 0.1216 0.4916 0.8623
vn 0.4916 0.1216 0.8623
vn 0.4489 0.4488 0.7727
vn 0.8623 -0.1216 0.4916
vn 0.8623 -0.4916 0.1216
vn 0.4916 -0.1216 0.8623
vn 0.7727 -0.4488 0.4489
vn 0.1216 -0.4916 0.8623
vn 0.4489 -0.7727 0.4489
vn 0.4489 -0.4489 0.7727
vn 0.4916 -0.8623 0.1216
vn 0.1216 -0.8623 0.4916
vn 0.1280 -0.9835 0.1280
vn -0.4916 0.1216 -0.8623
vn -0.1216 0.4916 -0.8623
vn -0.1280 0.1280 -0.9835
vn -0.8623 0.1216 -0.4916
vn -0.4489 0.4488 -0.7727
vn -0.8623 0.4916 -0.1216
vn -0.9835 0.1280 -0.1280
vn -0.4489 0.7727 -0.4489
vn -0.7727 0.4489 -0.4489
vn -0.1216 0.8623 -0.4916
vn -0.4916 0.8623 -0.1216
vn -0.8623 -0.1216 -0.4916
vn -0.8623 -0.4916 -0.1216
vn -0.4916 -0.1216 -0.8623
vn -0.7727 -0.4488 -0.4489
vn -0.1216 -0.4916 -0.8623
vn -0.1280 -0.1280 -0.9835
vn -0.4489 -0.7727 -0.4489
vn -0.4489 -0.4489 -0.7727
vn -0.4916 -0.8623 -0.1216
vn -0.1216 -0.8623 -0.4916
vn -0.8623 0.1216 0.4916
vn -0.8623 0.4916 0.1216
vn -0.4916 0.1216 0.8623
vn -0.7727 0.4488 0.4489
vn -0.1216 0.4916 0.8623
vn -0.1280 0.1280 0.9835
vn -0.4489 0.7727 0.4489
vn -0.4489 0.4489 0.7727
vn -0.4916 0.8623 0.1216
vn -0.1216 0.8623 0.4916
vn -0.1280 0.9835 0.1280
vn -0.1216 -0.8623 0.4916
vn -0.4916 -0.8623 0.1216
vn -0.1216 -0.4916 0.8623
vn -0.4489 -0.7727 0.4489
vn -0.4916 -0.1216 0.8623
vn -0.8623 -0.1216 0.4916
vn -0.4489 -0.4488 0.7727
vn -0.8623 -0.4916 0.1216
vn -0.7727 -0.4489 0.4489
vt 0.957810 0.957810
vt 0.042190 0.042190
vt 0.042190 0.957810
vt 0.957810 0.042190
vt 0.957810 0.978878
vt 0.978878 0.957810
vt 0.957810 0.994364
vt 0.977986 0.977986
vt 0.977986 0.988889
vt 0.994364 0.957810
vt 0.988889 0.977986
vt 0.978878 0.042190
vt 0.957810 0.021122
vt 0.994364 0.042190
vt 0.977986 0.022014
vt 0.042190 0.978878
vt 0.021122 0.957810
vt 0.988889 0.022014
vt 0.957810 0.005636
vt 0.977986 0.011111
vt 0.021122 0.042190
vt 0.042190 0.021122
vt 0.005636 0.957810
vt 0.022014 0.977986
vt 0.011111 0.977986
vt 0.042190 0.994364
vt 0.022014 0.988889
vt 0.011111 0.022014
vt 0.005636 0.042190
vt 0.042190 0.005636
vt 0.022014 0.022014
vt 0.022014 0.011111
s 1
usemtl BOX
f 13/1/1 85/2/2 63/3/3
f 73/3/4 61/4/5 87/2/6
f 27/1/7 86/2/8 38/4/9
f 51/3/10 26/4/11 2/1/12
f 3/1/13 37/2/14 15/4/15
f 49/3/58 14/4/31 62/2/72
f 13/1/1 39/4/55 85/2/2
f 73/3/4 50/1/62 61/4/5
f 27/1/7 74/3/82 86/2/8
f 51/3/10 75/2/87 26/4/11
f 3/1/13 25/3/38 37/2/14
f 49/3/58 1/1/18 14/4/31
usemtl BOX_BORDER
f 4/5/16 5/6/17 1/1/18
f 4/7/16 9/8/19 6/9/20
f 7/6/21 8/5/22 2/1/12
f 11/10/23 9/8/19 7/6/21
f 10/6/24 11/5/23 3/1/13
f 5/6/17 12/11/25 10/10/24
f 6/9/20 9/8/19 12/11/25
f 16/5/26 17/6/27 13/1/1
f 20/7/28 18/8/29 16/5/26
f 19/12/30 20/13/28 14/4/31
f 23/14/32 21/15/33 19/12/30
f 22/13/34 23/12/32 15/4/15
f 22/10/34 18/8/29 24/11/35
f 18/8/29 21/9/33 24/11/35
f 28/16/36 29/17/37 25/3/38
f 28/14/36 33/15/39 30/18/40
f 31/13/41 32/12/42 26/4/11
f 35/19/43 33/15/39 31/13/41
f 34/6/44 35/5/43 27/1/7
f 29/10/37 36/8/45 34/6/44
f 30/18/40 33/15/39 36/20/45
f 40/21/46 41/22/47 37/2/14
f 44/12/48 42/18/49 40/14/46
f 43/13/50 44/12/48 38/4/9
f 43/19/50 48/15/51 45/20/52
f 46/12/53 47/13/54 39/4/55
f 41/14/47 48/15/51 46/12/53
f 42/18/49 45/20/52 48/15/51
f 52/17/56 53/16/57 49/3/58
f 56/23/59 54/24/60 52/17/56
f 55/5/61 56/6/59 50/1/62
f 55/23/61 60/24/63 57/25/64
f 58/16/65 59/17/66 51/3/10
f 53/26/57 60/24/63 58/16/65
f 54/27/60 57/25/64 60/24/63
f 64/12/67 65/13/68 61/4/5
f 68/21/69 66/28/70 64/29/67
f 67/22/71 68/21/69 62/2/72
f 67/26/71 72/24/73 69/27/74
f 70/17/75 71/16/76 63/3/3
f 65/23/68 72/24/73 70/17/75
f 66/25/70 69/27/74 72/24/73
f 76/17/77 77/16/78 73/3/4
f 80/17/79 78/25/80 76/23/77
f 79/16/81 80/17/79 74/3/82
f 79/30/81 84/31/83 81/32/84
f 82/21/85 83/22/86 75/2/87
f 77/29/78 84/31/83 82/21/85
f 78/28/80 81/32/84 84/31/83
f 88/22/88 89/21/89 85/2/2
f 92/30/90 90/31/91 88/22/88
f 91/21/92 92/22/90 86/2/8
f 95/29/93 93/31/94 91/21/92
f 94/22/95 95/21/93 87/2/6
f 94/29/95 90/31/91 96/28/96
f 90/31/91 93/32/94 96/28/96
f 85/2/2 70/17/75 63/3/3
f 89/21/89 65/23/68 70/17/75
f 94/22/95 61/4/5 65/13/68
f 63/3/3 16/5/26 13/1/1
f 71/16/76 20/7/28 16/5/26
f 67/22/71 14/4/31 20/13/28
f 15/4/15 10/6/24 3/1/13
f 23/14/32 5/6/17 10/10/24
f 19/12/30 1/1/18 5/6/17
f 74/3/82 91/21/92 86/2/8
f 80/17/79 95/29/93 91/21/92
f 76/17/77 87/2/6 95/21/93
f 38/4/9 34/6/44 27/1/7
f 44/12/48 29/10/37 34/6/44
f 40/21/46 25/3/38 29/17/37
f 62/2/72 52/17/56 49/3/58
f 68/21/69 56/23/59 52/17/56
f 64/12/67 50/1/62 56/6/59
f 75/2/87 31/13/41 26/4/11
f 83/22/86 35/19/43 31/13/41
f 79/16/81 27/1/7 35/5/43
f 26/4/11 7/6/21 2/1/12
f 32/12/42 11/10/23 7/6/21
f 28/16/36 3/1/13 11/5/23
f 39/4/55 88/22/88 85/2/2
f 47/13/54 92/30/90 88/22/88
f 43/13/50 86/2/8 92/22/90
f 51/3/10 82/21/85 75/2/87
f 59/17/66 77/29/78 82/21/85
f 55/5/61 73/3/4 77/16/78
f 2/1/12 58/16/65 51/3/10
f 8/5/22 53/26/57 58/16/65
f 4/5/16 49/3/58 53/16/57
f 13/1/1 46/12/53 39/4/55
f 17/6/27 41/14/47 46/12/53
f 22/13/34 37/2/14 41/22/47
f 4/5/16 6/8/20 5/6/17
f 4/7/16 8/5/22 9/8/19
f 7/6/21 9/8/19 8/5/22
f 11/10/23 12/11/25 9/8/19
f 10/6/24 12/8/25 11/5/23
f 5/6/17 6/8/20 12/11/25
f 16/5/26 18/8/29 17/6/27
f 20/7/28 21/9/33 18/8/29
f 19/12/30 21/15/33 20/13/28
f 23/14/32 24/18/35 21/15/33
f 22/13/34 24/15/35 23/12/32
f 22/10/34 17/6/27 18/8/29
f 28/16/36 30/24/40 29/17/37
f 28/14/36 32/12/42 33/15/39
f 31/13/41 33/15/39 32/12/42
f 35/19/43 36/20/45 33/15/39
f 34/6/44 36/8/45 35/5/43
f 29/10/37 30/11/40 36/8/45
f 40/21/46 42/31/49 41/22/47
f 44/12/48 45/15/52 42/18/49
f 43/13/50 45/15/52 44/12/48
f 43/19/50 47/13/54 48/15/51
f 46/12/53 48/15/51 47/13/54
f 41/14/47 42/18/49 48/15/51
f 52/17/56 54/24/60 53/16/57
f 56/23/59 57/25/64 54/24/60
f 55/5/61 57/8/64 56/6/59
f 55/23/61 59/17/66 60/24/63
f 58/16/65 60/24/63 59/17/66
f 53/26/57 54/27/60 60/24/63
f 64/12/67 66/15/70 65/13/68
f 68/21/69 69/31/74 66/28/70
f 67/22/71 69/31/74 68/21/69
f 67/26/71 71/16/76 72/24/73
f 70/17/75 72/24/73 71/16/76
f 65/23/68 66/25/70 72/24/73
f 76/17/77 78/24/80 77/16/78
f 80/17/79 81/24/84 78/25/80
f 79/16/81 81/24/84 80/17/79
f 79/30/81 83/22/86 84/31/83
f 82/21/85 84/31/83 83/22/86
f 77/29/78 78/28/80 84/31/83
f 88/22/88 90/31/91 89/21/89
f 92/30/90 93/32/94 90/31/91
f 91/21/92 93/31/94 92/22/90
f 95/29/93 96/28/96 93/31/94
f 94/22/95 96/31/96 95/21/93
f 94/29/95 89/21/89 90/31/91
f 85/2/2 89/21/89 70/17/75
f 89/21/89 94/29/95 65/23/68
f 94/22/95 87/2/6 61/4/5
f 63/3/3 71/16/76 16/5/26
f 71/16/76 67/26/71 20/7/28
f 67/22/71 62/2/72 14/4/31
f 15/4/15 23/12/32 10/6/24
f 23/14/32 19/12/30 5/6/17
f 19/12/30 14/4/31 1/1/18
f 74/3/82 80/17/79 91/21/92
f 80/17/79 76/23/77 95/29/93
f 76/17/77 73/3/4 87/2/6
f 38/4/9 44/12/48 34/6/44
f 44/12/48 40/14/46 29/10/37
f 40/21/46 37/2/14 25/3/38
f 62/2/72 68/21/69 52/17/56
f 68/21/69 64/29/67 56/23/59
f 64/12/67 61/4/5 50/1/62
f 75/2/87 83/22/86 31/13/41
f 83/22/86 79/30/81 35/19/43
f 79/16/81 74/3/82 27/1/7
f 26/4/11 32/12/42 7/6/21
f 32/12/42 28/14/36 11/10/23
f 28/16/36 25/3/38 3/1/13
f 39/4/55 47/13/54 88/22/88
f 47/13/54 43/19/50 92/30/90
f 43/13/50 38/4/9 86/2/8
f 51/3/10 59/17/66 82/21/85
f 59/17/66 55/23/61 77/29/78
f 55/5/61 50/1/62 73/3/4
f 2/1/12 8/5/22 58/16/65
f 8/5/22 4/7/16 53/26/57
f 4/5/16 1/1/18 49/3/58
f 13/1/1 17/6/27 46/12/53
f 17/6/27 22/10/34 41/14/47
f 22/13/34 15/4/15 37/2/14
